<?xml version="1.0" encoding="utf-8"?>
<!-- Generator: Adobe Illustrator 18.0.0, SVG Export Plug-In . SVG Version: 6.00 Build 0)  -->
<!DOCTYPE svg PUBLIC "-//W3C//DTD SVG 1.1//EN" "http://www.w3.org/Graphics/SVG/1.1/DTD/svg11.dtd">
<svg version="1.1" id="Isolation_Mode" xmlns="http://www.w3.org/2000/svg" xmlns:xlink="http://www.w3.org/1999/xlink" x="0px"
	 y="0px" viewBox="0 0 124.1 130.5" enable-background="new 0 0 124.1 130.5" xml:space="preserve">
<g>
	<g>
		<g>
			<g>
				<g>
					<circle fill="#FDA400" cx="62" cy="65.3" r="45.5"/>
				</g>
			</g>
		</g>
	</g>
	<g>
		<g>
			<g>
				<path d="M79,61.6c3.8-2.3,5.1-7.2,2.8-11L68,58.8C70.3,62.7,75.2,63.9,79,61.6z"/>
			</g>
			<g>
				<path d="M43.1,61.6c-3.8-2.3-5.1-7.2-2.8-11l13.8,8.3C51.8,62.7,46.9,63.9,43.1,61.6z"/>
			</g>
			<g>
				<path d="M41.3,86.2c-0.3,0-0.6-0.1-0.8-0.4c-0.3-0.4-0.2-1,0.2-1.3c0.3-0.2,8.2-5.7,20.3-5.7c12.1,0,19.7,5.5,20.1,5.7
					c0.4,0.3,0.5,0.9,0.2,1.3c-0.3,0.4-0.9,0.5-1.3,0.2c-0.1-0.1-7.5-5.4-19-5.4c-11.5,0-19.2,5.3-19.3,5.4
					C41.6,86.1,41.5,86.2,41.3,86.2z"/>
			</g>
			<g>
				<g>
					<path d="M88.5,53.3c0,0-0.1,0-0.1,0c-0.3-0.1-0.5-0.4-0.5-0.7l2.2-9.3c0.1-0.3,0.4-0.5,0.7-0.5c0.3,0.1,0.5,0.4,0.5,0.7
						l-2.2,9.3C89,53.1,88.8,53.3,88.5,53.3z"/>
				</g>
				<g>
					<path d="M91.6,53.3c0,0-0.1,0-0.1,0c-0.3-0.1-0.5-0.4-0.5-0.7l2.2-9.3c0.1-0.3,0.4-0.5,0.7-0.5c0.3,0.1,0.5,0.4,0.5,0.7
						l-2.2,9.3C92.2,53.1,91.9,53.3,91.6,53.3z"/>
				</g>
				<g>
					<path d="M95.9,48.2c0,0-0.1,0-0.1,0L86.4,46c-0.3-0.1-0.5-0.4-0.5-0.7c0.1-0.3,0.4-0.5,0.7-0.5L96,47c0.3,0.1,0.5,0.4,0.5,0.7
						C96.4,48,96.1,48.2,95.9,48.2z"/>
				</g>
				<g>
					<path d="M95.9,51.4c0,0-0.1,0-0.1,0l-9.3-2.2c-0.3-0.1-0.5-0.4-0.5-0.7c0.1-0.3,0.4-0.5,0.7-0.5l9.3,2.2
						c0.3,0.1,0.5,0.4,0.5,0.7C96.4,51.2,96.1,51.4,95.9,51.4z"/>
				</g>
			</g>
		</g>
		<g>
			<g>
				<circle fill="#FFFFFF" cx="37.5" cy="74.9" r="1.4"/>
				<circle fill="#FFFFFF" cx="37.5" cy="71" r="1.4"/>
				<circle fill="#FFFFFF" cx="34.1" cy="72.8" r="1.4"/>
			</g>
			<g>
				<circle fill="#FFFFFF" cx="84.4" cy="71.6" r="1.4"/>
				<circle fill="#FFFFFF" cx="84.4" cy="75.5" r="1.4"/>
				<circle fill="#FFFFFF" cx="87.8" cy="73.7" r="1.4"/>
			</g>
		</g>
	</g>
</g>
</svg>
