<?xml version="1.0" encoding="utf-8"?>
<!-- Generator: Adobe Illustrator 18.0.0, SVG Export Plug-In . SVG Version: 6.00 Build 0)  -->
<!DOCTYPE svg PUBLIC "-//W3C//DTD SVG 1.1//EN" "http://www.w3.org/Graphics/SVG/1.1/DTD/svg11.dtd">
<svg version="1.1" id="Isolation_Mode" xmlns="http://www.w3.org/2000/svg" xmlns:xlink="http://www.w3.org/1999/xlink" x="0px"
	 y="0px" viewBox="0 0 792 612" enable-background="new 0 0 792 612" xml:space="preserve">
<g>
	<circle fill="#2EB3A8" cx="397.3" cy="304.7" r="280.9"/>
	<g>
		<g>
			<path fill="#769B94" d="M660.7,208.7c0.3,0.2,0.5,0.3,0.8,0.5c-4.6-12.6-10-24.8-16.3-36.5l-11.7,20.4L660.7,208.7z"/>
			<path fill="#769B94" d="M666.3,223.6c-0.2,0.7-0.6,1.4-1,2.1L539,445.9l133.8-196.1C671.1,240.9,668.9,232.1,666.3,223.6z"/>
			<path fill="#769B94" d="M522.4,53.1c-3.9-1.9-7.8-3.7-11.7-5.5L434,191l-48-7.2l52.9,14.9L522.4,53.1z"/>
		</g>
		<g>
			<polygon fill="#F2E4DA" points="324.2,403 247.7,415.5 317.2,381.9 272.9,249.6 283.8,245.9 336.9,404.7 326,408.3 			"/>
			<path fill="#22262E" d="M131,394c9.6,28.7,23.4,54.8,40.4,77.9L329.6,419l-5.4-16.1l-76.5,12.5l69.4-33.6l-48.6-145.2L117,287.4
				C114.8,322.5,119.2,358.6,131,394z"/>
			<g>
				<g>
					<path fill="#F2E4DA" d="M247.9,390.1c2.2,6.7,9.5,10.3,16.2,8.1c6.7-2.2,10.3-9.5,8.1-16.2c-2.2-6.7-9.5-10.3-16.2-8.1
						C249.3,376.1,245.7,383.4,247.9,390.1z"/>
				</g>
				<g>
					<path fill="#F2E4DA" d="M202.3,405.3c2.2,6.7,9.5,10.3,16.2,8.1c6.7-2.2,10.3-9.5,8.1-16.2c-2.2-6.7-9.5-10.3-16.2-8.1
						C203.7,391.3,200.1,398.6,202.3,405.3z"/>
				</g>
			</g>
		</g>
		<path fill="#ECC19C" d="M316.2,248.1l18.1-47l51.8-17.3l58.5,16.5l75.8-25.3c10.9-3.6,22.7,2.2,26.3,13.1
			c3.6,10.9-2.2,22.7-13.1,26.3l0,0l-7.1,2.4c10.9-3.6,22.7,2.2,26.3,13.1c3.6,10.9-2.2,22.7-13.1,26.3l0,0
			c10.9-3.6,22.7,2.2,26.3,13.1c3.6,10.9-2.2,22.7-13.1,26.3l0,0c10.9-3.6,22.7,2.2,26.3,13.1c3.6,10.9-2.2,22.7-13.1,26.3l0,0
			l-13.2,4.4l-59.8,20L411.4,387l-36.6-5.9l-41.2,13.8l-45.9-137.3L316.2,248.1z"/>
		<path fill="#DDAE8C" d="M375.3,307.3l24.3-68.4l51.3,11.5l0,0c4.3,1.1,8.9,1.1,13.4-0.4c12.2-4.1,18.8-17.3,14.7-29.5
			c-0.8-2.5-2.1-4.8-3.6-6.8c2.8,2.6,5.1,5.9,6.4,9.8c4.1,12.2-2.5,25.4-14.7,29.5c-4.5,1.5-8.9,2.6-13.6,2.5l-47.9-7.1l-27.5,62
			l-2.9-2.9L375.3,307.3z"/>
		<g>
			<g>
				<path fill="#FDA400" d="M666,111.6c6,3.4,8,11.1,4.6,17L544.3,348.8c-3.4,6-11.1,8-17,4.6l-122.4-70.2c-6-3.4-8-11.1-4.6-17
					L526.5,46c3.4-6,11.1-8,17-4.6L666,111.6z"/>
			</g>
			<g>
				<linearGradient id="SVGID_1_" gradientUnits="userSpaceOnUse" x1="393.3537" y1="294.4705" x2="666.9855" y2="294.4705">
					<stop  offset="0" style="stop-color:#FFE8A3"/>
					<stop  offset="0.5" style="stop-color:#FFCA05"/>
					<stop  offset="1" style="stop-color:#FAAC18"/>
				</linearGradient>
				<path fill="url(#SVGID_1_)" d="M660.7,208.7c5.9,3.4,8,11.1,4.6,17L539,445.9c-3.4,6-11.1,8-17,4.6l-122.4-70.2
					c-5.9-3.4-8-11.1-4.6-17l126.3-220.1c3.4-6,11.1-8,17-4.6L660.7,208.7z"/>
				<g>
					<path fill="#726D6D" d="M646.6,232.4c0.9-1.5,0.1-3.5-1.6-4.5l-4.7-2.7"/>
					<path fill="#726D6D" d="M610.9,276.4l4.7,2.7c1.7,1,3.8,0.6,4.7-0.9"/>
				</g>
			</g>
		</g>
		<g>
			<g>
				<path fill="#8C8B8B" d="M466,206.4c0.8,0.3,1.5,0.7,2.3,1.1l0-0.1C467.6,207.1,466.8,206.7,466,206.4z"/>
				<polygon fill="#8C8B8B" points="415,242.4 414,242.1 410.1,249 441.6,254.1 444.5,249 				"/>
			</g>
			<path fill="#318484" d="M460.3,257.1L460.3,257.1c4.3,0.9,9,0.5,13.4-1.2c11.9-4.8,17.7-18.4,12.9-30.4c-1.4-3.4-3.9-6.8-6.9-9.8
				l-1.5,2.6c0.3,0.7,0.6,1.4,0.9,2.2c4.1,12.2-2.5,25.4-14.7,29.5c-1.6,0.6-3.3,0.9-5,1.1l-3.1,5.4L460.3,257.1z"/>
			<g>
				<path fill="#3F3D3B" d="M479.6,215.7c-1.3-1.3-2.7-2.5-4.1-3.6l-0.6,1.1c1.2,1.5,2.3,3.2,3.2,5.1L479.6,215.7z"/>
				<path fill="#3F3D3B" d="M459.4,251.1c-1.5,0.2-3,0.2-4.5,0l-2.5,4.7l3.9,0.6L459.4,251.1z"/>
			</g>
			<g>
				<path fill="#4C4A48" d="M468.3,207.5L468.3,207.5c2.5,1.5,4.8,3.4,6.7,5.7l0.6-1.1C473.2,210.3,470.8,208.7,468.3,207.5z"/>
				<path fill="#4C4A48" d="M450.9,250.4L450.9,250.4l-6.4-1.4l-2.9,5.1l10.8,1.7l2.5-4.7C453.5,251,452.2,250.7,450.9,250.4z"/>
			</g>
		</g>
		<path fill="#ECC19C" d="M316.2,248.1l18.1-47l51.8-17.3l75.5,21.2c7.9,1.6,14.8,7.2,17.5,15.4c4.1,12.2-2.5,25.4-14.7,29.5
			c-4.5,1.5-9.1,1.6-13.4,0.4l0,0l-51.3-11.5l-24.3,68.4l-63.8,21.3l-23.8-71.1L316.2,248.1z"/>
		<path fill="#F2D6C2" d="M457.7,212.5c8,1.9,12.9,9.8,11.1,17.8c-1.9,8-9.8,12.9-17.8,11.1l-14.7-3.4l6.7-28.9L457.7,212.5z"/>
	</g>
</g>
</svg>
