<?xml version="1.0" encoding="utf-8"?>
<!-- Generator: Adobe Illustrator 18.0.0, SVG Export Plug-In . SVG Version: 6.00 Build 0)  -->
<!DOCTYPE svg PUBLIC "-//W3C//DTD SVG 1.1//EN" "http://www.w3.org/Graphics/SVG/1.1/DTD/svg11.dtd">
<svg version="1.1" id="Isolation_Mode" xmlns="http://www.w3.org/2000/svg" xmlns:xlink="http://www.w3.org/1999/xlink" x="0px"
	 y="0px" viewBox="0 0 124.1 130.5" enable-background="new 0 0 124.1 130.5" xml:space="preserve">
<g>
	<g>
		<g>
			<g>
				<g>
					<circle fill="#2EB3A8" cx="62" cy="65.3" r="45.5"/>
				</g>
			</g>
		</g>
	</g>
	<g>
		<g>
			<g>
				<path d="M74.7,60.3c3.7,1.3,7.7-0.7,8.9-4.4l-13.4-4.5C69,55,71,59,74.7,60.3z"/>
			</g>
			<g>
				<path d="M46.6,60.3c3.7-1.3,5.5-5.4,4.2-9l-13.3,4.8C38.9,59.7,42.9,61.6,46.6,60.3z"/>
			</g>
			<g>
				<path fill="#FFFFFF" d="M86.5,64.4c0.1,1.7-1.2,3.2-3,3.2c-1.7,0.1-3.2-1.2-3.2-3c-0.1-1.7,2.8-7.6,2.8-7.6S86.5,62.7,86.5,64.4
					z"/>
			</g>
		</g>
		<g>
			<g>
				<circle fill="#FFFFFF" cx="36" cy="74.3" r="1.4"/>
				<circle fill="#FFFFFF" cx="36" cy="70.3" r="1.4"/>
				<circle fill="#FFFFFF" cx="32.4" cy="72.1" r="1.4"/>
			</g>
			<g>
				<circle fill="#FFFFFF" cx="84.9" cy="70.9" r="1.4"/>
				<circle fill="#FFFFFF" cx="84.9" cy="74.9" r="1.4"/>
				<circle fill="#FFFFFF" cx="88.5" cy="73" r="1.4"/>
			</g>
		</g>
		<g>
			<path d="M41.2,89.8c-0.3,0-0.6-0.1-0.8-0.4c-0.3-0.4-0.2-1,0.2-1.3c0.3-0.2,8.2-5.7,20.3-5.7c12.1,0,19.7,5.5,20.1,5.7
				c0.4,0.3,0.5,0.9,0.2,1.3c-0.3,0.4-0.9,0.5-1.3,0.2c-0.1-0.1-7.5-5.4-19-5.4c-11.5,0-19.2,5.3-19.3,5.4
				C41.6,89.8,41.4,89.8,41.2,89.8z"/>
		</g>
	</g>
</g>
</svg>
