<?xml version="1.0" encoding="utf-8"?>
<!-- Generator: Adobe Illustrator 18.1.0, SVG Export Plug-In . SVG Version: 6.00 Build 0)  -->
<svg version="1.1" id="Layer_1" xmlns="http://www.w3.org/2000/svg" xmlns:xlink="http://www.w3.org/1999/xlink" x="0px" y="0px"
	 viewBox="0 0 792 612" enable-background="new 0 0 792 612" xml:space="preserve">
<rect x="83.9" fill="#3E70B5" width="624.2" height="612"/>
<path fill="#FFFFFF" d="M486.8,279.3v-38.2c0-42.7-33.6-76.3-74.8-76.3h-1.5c-41.2,0-74.8,33.6-74.8,76.3v38.2
	c-15.3,18.3-24.4,41.2-24.4,65.6c0,56.5,44.3,102.3,99.2,102.3s100.7-45.8,100.7-102.3C509.7,320.5,502.1,297.6,486.8,279.3z
	 M410.5,375.4c-15.3,0-27.5-12.2-27.5-29c0-15.3,12.2-29,27.5-29s27.5,12.2,27.5,29C438,361.7,425.8,375.4,410.5,375.4z
	 M456.3,254.9c-13.7-7.6-29-10.7-45.8-10.7s-32,4.6-45.8,10.7v-15.3c0-24.4,19.8-45.8,44.3-45.8h1.5c24.4,0,44.3,21.4,44.3,45.8
	L456.3,254.9L456.3,254.9z"/>
</svg>
