<?xml version="1.0" encoding="utf-8"?>
<!-- Generator: Adobe Illustrator 18.0.0, SVG Export Plug-In . SVG Version: 6.00 Build 0)  -->
<!DOCTYPE svg PUBLIC "-//W3C//DTD SVG 1.1//EN" "http://www.w3.org/Graphics/SVG/1.1/DTD/svg11.dtd">
<svg version="1.1" id="Layer_1" xmlns="http://www.w3.org/2000/svg" xmlns:xlink="http://www.w3.org/1999/xlink" x="0px" y="0px"
	 viewBox="0 0 29.4 49.3" enable-background="new 0 0 29.4 49.3" xml:space="preserve">
<g>
	<g>
		<g>
			<g>
				<g>
					<path fill="#49CF98" d="M20,1.6C20.4,0.7,19.8,0,18.9,0H1.7C0.8,0,0,0.8,0,1.7v36.8c0,1,0.8,1.7,1.7,1.7h25.9
						c1,0,1.7-0.8,1.7-1.7V13.7c0-1-0.6-2.2-1.4-2.7l-7.6-5.2c-0.8-0.5-1.2-1.7-0.9-2.6L20,1.6z"/>
				</g>
				<g>
					<path fill="#009357" d="M23.7,1.4c-0.6-0.8-1.3-0.7-1.6,0.2l-0.2,0.6c-0.3,0.9,0.1,2.1,0.9,2.6L28,8.4c0.8,0.5,1,0.4,0.4-0.4
						L23.7,1.4z"/>
				</g>
			</g>
		</g>
		<text transform="matrix(1 0 0 1 3.8942 24.6582)" fill="#FFFFFF" font-family="'GothamRounded-Medium'" font-size="10.3962">PDF</text>
	</g>
	<polygon fill="#49CF98" stroke="#FFFFFF" stroke-width="0.8664" stroke-miterlimit="10" points="18.1,40.8 18.1,34.5 11.3,34.5 
		11.3,40.8 7.3,40.8 14.7,48.7 22.1,40.8 	"/>
</g>
</svg>
