<?xml version="1.0" encoding="utf-8"?>
<!-- Generator: Adobe Illustrator 18.0.0, SVG Export Plug-In . SVG Version: 6.00 Build 0)  -->
<!DOCTYPE svg PUBLIC "-//W3C//DTD SVG 1.1//EN" "http://www.w3.org/Graphics/SVG/1.1/DTD/svg11.dtd">
<svg version="1.1" id="Layer_1" xmlns="http://www.w3.org/2000/svg" xmlns:xlink="http://www.w3.org/1999/xlink" x="0px" y="0px"
	 viewBox="0 0 37.4 31" enable-background="new 0 0 37.4 31" xml:space="preserve">
<g>
	<path fill="#BFBFBF" d="M4.2,2C2.1,2,0.4,3.7,0.4,5.8c0,2.1,1.7,3.9,3.9,3.9c2.1,0,3.9-1.7,3.9-3.9C8.1,3.7,6.4,2,4.2,2z M4.2,7.8
		c-1.1,0-2-0.9-2-2s0.9-2,2-2c1.1,0,2,0.9,2,2C6.2,6.9,5.3,7.8,4.2,7.8z"/>
	<path fill="#BFBFBF" d="M11.3,7.3h24.3c0.8,0,1.5-0.7,1.5-1.5c0-0.8-0.7-1.5-1.5-1.5H11.3c-0.8,0-1.5,0.7-1.5,1.5
		C9.8,6.7,10.4,7.3,11.3,7.3z"/>
	<path fill="#BFBFBF" d="M4.2,11.6c-2.1,0-3.9,1.7-3.9,3.9s1.7,3.9,3.9,3.9c2.1,0,3.9-1.7,3.9-3.9S6.4,11.6,4.2,11.6z M4.2,17.5
		c-1.1,0-2-0.9-2-2s0.9-2,2-2c1.1,0,2,0.9,2,2C6.2,16.6,5.3,17.5,4.2,17.5z"/>
	<path fill="#BFBFBF" d="M35.6,14H11.3c-0.8,0-1.5,0.7-1.5,1.5s0.7,1.5,1.5,1.5h24.3c0.8,0,1.5-0.7,1.5-1.5S36.4,14,35.6,14z"/>
	<path fill="#BFBFBF" d="M4.2,21.3c-2.1,0-3.9,1.7-3.9,3.9S2.1,29,4.2,29c2.1,0,3.9-1.7,3.9-3.9S6.4,21.3,4.2,21.3z M4.2,27.2
		c-1.1,0-2-0.9-2-2c0-1.1,0.9-2,2-2c1.1,0,2,0.9,2,2C6.2,26.3,5.3,27.2,4.2,27.2z"/>
	<path fill="#BFBFBF" d="M35.6,23.7H11.3c-0.8,0-1.5,0.7-1.5,1.5c0,0.8,0.7,1.5,1.5,1.5h24.3c0.8,0,1.5-0.7,1.5-1.5
		S36.4,23.7,35.6,23.7z"/>
</g>
</svg>
