<?xml version="1.0" encoding="utf-8"?>
<!-- Generator: Adobe Illustrator 18.1.0, SVG Export Plug-In . SVG Version: 6.00 Build 0)  -->
<svg version="1.1" id="Layer_1" xmlns="http://www.w3.org/2000/svg" xmlns:xlink="http://www.w3.org/1999/xlink" x="0px" y="0px"
	 viewBox="0 0 792 612" enable-background="new 0 0 792 612" xml:space="preserve">
<defs>
	<filter id="Adobe_OpacityMaskFilter" filterUnits="userSpaceOnUse" x="158" y="86.7" width="480" height="422.8">
		<feColorMatrix  type="matrix" values="1 0 0 0 0  0 1 0 0 0  0 0 1 0 0  0 0 0 1 0"/>
	</filter>
</defs>
<mask maskUnits="userSpaceOnUse" x="158" y="86.7" width="480" height="422.8" id="SVGID_1_">
	<g filter="url(#Adobe_OpacityMaskFilter)">
		<g>
			<path fill="#FFFFFF" d="M200.4,292.7c-0.8-4.8-18.8-34.8-24-31.6c-3.2,2-4.4,12-5.2,15.6c-1.6,7.2-3.2,17.2-2,24
				c0.8,4,21.2,36.4,24,34.4c1.2-0.8,0.4-4.4,0.4-5.6c0-4.4,0.4-8.8,0.8-13.2s1.6-8.8,2.4-13.2C198.4,299.9,200.8,295.9,200.4,292.7
				z"/>
			<path fill="#FFFFFF" d="M204.8,280.7c2,0,2.4-1.6,3.2-3.2c2.4-4.4,5.2-8.4,7.6-12c5.6-7.6,12.4-14.8,19.6-21.6s4.4-11.6-0.8-18.8
				c-2.8-3.6-11.6-20-18.4-16c-5.2,3.2-10,9.2-14.4,13.2c-6.4,6.4-12,13.6-16.8,21.2c-4.8,7.6-0.4,13.6,4.8,20
				C192.8,267.9,198.8,280.3,204.8,280.7z"/>
			<path fill="#FFFFFF" d="M256.4,222.7c6-4.4,11.6-9.2,17.2-13.6c6.8-4.8,14-9.2,21.2-12.8c6-3.2,3.2-8.4-0.4-12.8
				c-4-5.2-8.4-15.2-15.2-17.2c-4-1.2-9.6,3.2-13.2,4.8c-4,2-7.6,4-11.6,6.4c-7.2,4.4-14,9.6-20.8,14.4c-6.4,4.4,4,15.2,6.8,18.8
				C244,213.9,250.4,226.7,256.4,222.7z"/>
			<path fill="#FFFFFF" d="M206.4,301.5c-1.2,0.8-1.6,4-2,5.2c-1.2,4-2.4,8.4-3.2,12.8c-1.2,7.2-3.2,17.6-0.8,24.8
				c2,7.2,7.6,13.6,11.6,19.2c0.8,1.6,10.4,15.2,12,13.2c0.8-1.6,0.4-5.2,0.4-7.2c0-4,0-7.6,0.4-11.2c0.4-4.4,0.8-8.8,2-12.8
				c0.8-4,3.2-7.6,3.2-11.6C230.4,328.7,211.2,298.3,206.4,301.5z"/>
			<path fill="#FFFFFF" d="M263.2,282.3c6.8-7.2,4.4-11.6-1.2-18.8c-2.8-4-11.6-20.4-18-15.6c-5.2,3.6-9.6,9.2-13.6,13.6
				c-6.4,6.8-11.6,14-16,22s-0.4,13.6,4.8,20c3.2,4.4,9.2,16.8,14.8,17.2c2,0,2.4-2,2.8-3.2c2-4.4,4.8-8.8,7.6-12.8
				C250,296.7,256.4,289.5,263.2,282.3z"/>
			<path fill="#FFFFFF" d="M279.2,219.5c-7.2,4.8-13.6,9.6-20,15.2c-6,4.8,4,15.2,6.8,18.8c2.4,3.6,9.2,16,15.2,11.6
				c5.6-4.4,11.2-9.6,16.8-14c6.8-5.2,13.6-9.6,20.8-14c5.6-3.6,2.8-8.4-0.4-13.2c-4-5.2-8.4-15.2-15.2-16.8
				c-4-1.2-9.2,3.6-12.4,5.6C286.8,214.7,282.8,217.1,279.2,219.5z"/>
			<path fill="#FFFFFF" d="M236.4,341.5c-1.6,1.2-1.6,4-2,5.6c-1.2,4.4-2,8.8-2.8,13.2c-1.2,7.6-1.2,15.6-1.2,23.6
				c0,4.8,21.2,37.2,24,34.4c1.2-1.2,0.4-4.4,0.4-6c0-4,0-7.6,0.4-11.6c0.4-4.4,0.8-8.8,1.6-12.8c0.8-4.8,3.2-9.6,3.2-14.4
				C259.6,368.7,240.4,337.9,236.4,341.5z"/>
			<path fill="#FFFFFF" d="M263.2,359.9c1.6,0,2-2,2.8-3.2c2-4.4,4.4-8.8,7.2-12.8c4.8-7.6,10.4-15.2,16.8-22c2-2.4,5.6-5.2,5.6-8.8
				c0-4.4-2.4-7.6-4.8-10.8c-2.8-3.6-12-21.2-18.4-16.4c-5.2,3.6-9.6,9.6-13.6,14.4c-6,7.2-11.2,14.4-15.2,22.8
				c-4.4,8,0,13.6,4.8,20C251.2,347.1,257.2,359.5,263.2,359.9z"/>
			<path fill="#FFFFFF" d="M328.4,241.9c-4-0.8-9.2,4-12,6c-3.6,2.8-7.2,5.2-10.4,7.6c-6.8,5.2-13.2,10.8-19.2,16
				c-5.6,5.2,4,15.2,6.8,19.2c2,2.8,9.6,16.4,14.8,11.2c6-4.8,11.6-11.2,17.2-16c6.4-5.6,13.6-10.4,20.4-15.2
				c4.4-3.2-0.4-9.2-2.4-11.6C339.6,253.5,334.8,243.9,328.4,241.9z"/>
			<path fill="#FFFFFF" d="M265.6,381.1c-1.2,1.2-1.6,4-1.6,5.6c-1.2,4.4-2,8.8-2.8,13.6c-0.8,8.4-0.8,16.4-0.8,24.8
				c0,7.2,6,13.6,9.6,19.2c1.6,2,11.6,17.6,13.6,15.2c1.2-1.2,0.4-4.8,0.4-6.4c0-4.4,0-8.4,0.4-12.4c0.4-9.2,2-18,4-26.8
				C289.6,407.9,268.8,377.9,265.6,381.1z"/>
			<path fill="#FFFFFF" d="M292,399.1c1.6,0,2-2,2.8-3.2c2-4.4,4-9.2,6.8-13.6c4.8-8,10-15.2,15.6-22.8c2-2.8,5.6-5.6,5.6-9.2
				c0-4.4-2-7.6-4.4-10.4c-2.8-3.6-12.4-21.2-18.4-16c-11.2,10-20.8,24.8-27.2,38.4c-4,8.4,0,13.6,5.2,20
				C280.4,386.3,286.8,399.1,292,399.1z"/>
			<path fill="#FFFFFF" d="M334.8,338.7c5.6-5.6,10.8-11.6,16.8-17.2c6.4-5.6,12.8-11.2,19.6-16.4c4-3.2-0.4-9.2-2.4-12
				c-3.6-4.8-8.4-15.2-14.8-16.4c-4-0.8-8.8,4.4-11.6,6.8c-4,2.4-7.2,5.6-10.4,8c-6.4,5.6-12.4,11.6-18.4,17.2
				c-5.6,5.6,4,14.8,6.8,19.2C322.4,330.7,329.6,343.9,334.8,338.7z"/>
			<path fill="#FFFFFF" d="M315.6,173.1c3.2,2.8,5.6,2,9.2,0.4c6.8-3.2,13.6-5.6,20.8-8c5.2-1.6,12-2.8,16.4-5.6
				c4.8-3.6-4.4-12-6.4-15.2c-4.4-6-7.6-8-15.2-6c-7.6,2-14.4,4.4-21.6,6.8c-4.8,1.6-11.6,2.8-15.2,5.6c-4.8,2.8,4.8,12.8,6.4,14.8
				C311.6,168.3,313.2,171.1,315.6,173.1z"/>
			<path fill="#FFFFFF" d="M405.6,156.7c6-1.6,12-3.6,18.8-4.8c3.6-0.8,6.8-1.2,10-1.6c2.4,0,5.6,0,7.6-0.8c3.6-1.2-4.4-10-5.6-11.6
				c-4-5.6-6.8-7.2-14-6.8c-6.8,0.4-13.6,1.6-20,3.2c-4.4,0.8-11.2,1.2-14.4,3.6c-4.4,2.8,4,11.2,5.6,13.6
				C397.2,155.5,400,158.3,405.6,156.7z"/>
			<path fill="#FFFFFF" d="M513.6,117.5c4.4-1.2,8.8-2.4,12.8-3.6c2.4-0.4,4.8-0.8,7.6-1.2c1.6,0,4,0,5.6-0.4c2.4-0.8-3.2-7.2-4-8.4
				c-3.2-4-4.8-5.2-9.6-4.8s-9.6,1.2-14,2c-3.2,0.8-7.6,0.8-10,2.4c-3.2,2,2.8,7.6,4,9.6C507.6,116.7,509.6,118.7,513.6,117.5z"/>
			<path fill="#FFFFFF" d="M616,155.1c-3.2-4.4-5.2-5.6-10.8-5.2c-5.2,0.4-10,1.2-15.2,2c-3.2,0.8-7.6,1.2-10.8,2.8
				c-3.2,2,3.2,8.4,4.4,10c2.4,3.6,4.4,5.6,9.2,4.4c4.8-1.2,9.6-2.8,14-3.6c2.8-0.4,5.2-1.2,7.6-1.2c2-0.4,4,0,6-0.8
				C623.2,162.7,616.8,155.9,616,155.1z"/>
			<path fill="#FFFFFF" d="M339.6,183.5c-4.8,2-10.8,4-15.2,6.8c-4.8,3.2,4.8,12.8,6.4,15.2c2,2.4,3.6,5.2,5.6,7.2
				c3.2,2.8,5.6,1.6,9.2,0c6.8-3.6,13.6-6.4,20.8-9.2c5.2-2,12-3.2,16.4-6.4c4.8-3.6-4.4-12.4-6.4-15.2c-4.4-6-7.6-8-15.2-5.6
				C354,178.3,346.8,180.7,339.6,183.5z"/>
			<path fill="#FFFFFF" d="M487.2,173.1c6-2,12.4-4,18.8-5.6c3.6-0.8,6.8-1.6,10.4-2c2.4-0.4,5.6-0.4,7.6-1.2
				c3.6-1.6-4.4-10.4-5.6-12c-4.4-6-6.8-7.6-14.4-6.4c-7.2,0.8-13.6,2.4-20.4,4c-4.4,1.2-10.8,1.6-14.4,4c-4,3.2,4,11.6,5.6,14
				C478.8,172.3,481.6,175.1,487.2,173.1z"/>
			<path fill="#FFFFFF" d="M353.2,257.1c3.2,2.8,5.6,1.6,9.2-0.4c6.8-4,13.6-7.2,20.4-10c4.8-2,12-3.6,15.6-7.2
				c4.4-4-4.4-12.4-6.4-15.6c-4.4-6-7.6-8-14.8-5.2s-14.4,5.6-21.2,8.8c-4.4,2-11.2,4-14.8,7.2c-4.4,3.6,4.8,12.8,6.8,15.2
				C349.2,252.3,350.8,255.1,353.2,257.1z"/>
			<path fill="#FFFFFF" d="M439.2,202.3c-7.2,1.2-13.6,3.2-20.8,5.2c-4.4,1.2-11.2,2-14.4,4.8c-4.4,3.6,4,11.6,6,14.4
				c3.6,4.8,6.4,7.6,12,5.6c6.8-2.4,13.6-5.2,20.8-7.2c3.6-1.2,7.2-2,10.4-2.8c2-0.4,5.2-0.4,6.8-1.6c3.2-2-4.8-10.8-6.4-12.8
				C449.6,201.9,447.2,201.1,439.2,202.3z"/>
			<path fill="#FFFFFF" d="M380.4,291.5c3.2,2.4,5.6,1.2,8.8-0.8c6-4,12-7.6,18.8-10.4c4.8-2.4,12-4.4,15.6-7.6
				c4.4-4-4.8-13.2-7.2-16.4c-4-5.6-7.2-6.4-13.6-4c-6.8,3.2-13.6,6-20,9.6c-4.8,2.4-10.4,4.8-14.4,8c-4.4,4,4.4,12.4,6.4,15.2
				C376.4,286.7,378,289.5,380.4,291.5z"/>
			<path fill="#FFFFFF" d="M527.2,217.9c2-0.4,5.2-0.8,6.8-2c3.2-2.4-5.2-11.2-6.8-13.6c-4.8-6.8-7.6-7.6-15.2-5.6
				c-7.2,1.6-14,4-20.8,6.4c-4.4,1.6-11.6,2.8-15.2,6c-4.4,4,5.2,13.6,7.6,16.8c4,5.6,7.6,5.6,13.6,3.2c6.4-2.8,12.8-5.6,19.2-7.6
				C519.6,219.9,523.2,218.7,527.2,217.9z"/>
			<path fill="#FFFFFF" d="M296,421.5c-1.2,1.2-1.2,4-1.6,5.6c-0.8,4-2,8-2.4,12c-1.2,9.2-0.8,18.4-1.2,27.2c0,7.2,6,13.6,9.6,19.2
				c1.2,2,11.2,17.2,13.6,14.8c1.2-1.2,0.4-4.8,0.4-6c0-4,0-7.6,0-11.6c0-8.8,1.2-17.2,3.2-25.6c2-8.4-1.6-13.6-6.4-20
				C309.6,435.5,299.2,418.7,296,421.5z"/>
			<path fill="#FFFFFF" d="M328.8,362.3c-4.4,4-7.6,9.6-11.2,14.4c-5.6,7.6-10.4,15.6-14.4,24c-1.6,3.2-3.6,6-2.8,9.6
				c0.8,4.4,3.6,7.6,6,11.2c1.6,2,12.8,20.8,16.4,17.2c1.2-1.2,1.6-3.6,2-4.8c2-4.8,4.4-9.6,6.8-13.6c4.4-8.4,9.6-15.6,15.2-23.6
				c5.6-7.6,4-12-1.6-19.6C343.6,373.1,334.8,356.7,328.8,362.3z"/>
			<path fill="#FFFFFF" d="M380,312.7c-3.6,0-7.6,5.6-10.4,7.6c-3.6,2.8-7.2,5.6-10,9.2c-2.8,2.4-5.6,5.2-8,7.6
				c-3.2,3.2-7.6,6.8-9.6,11.2c-3.6,6.8,5.2,15.2,9.2,19.6c2,2.8,8.4,13.6,12.8,8.4c4.4-6.4,10-12,15.6-17.6
				c6-6.4,12.8-12,19.2-17.6c4-3.6-0.4-9.2-2.8-12C392.4,324.3,386.4,312.3,380,312.7z"/>
			<path fill="#FFFFFF" d="M425.6,283.1c-6.8,3.6-13.6,6.8-20.4,10.8c-4,2.4-9.2,4.8-12.8,7.6c-4.4,4,4.8,12.8,6.8,15.6
				c1.6,2.4,3.2,5.2,5.6,7.2c3.2,2.8,5.6,0.8,8.8-1.2c6-4.4,12.4-8.4,18.8-12c4.8-2.8,11.6-5.2,15.6-8.8c4.8-4.4-5.2-14-7.6-17.6
				C435.6,278.7,432,279.9,425.6,283.1z"/>
			<path fill="#FFFFFF" d="M548.4,240.7c-7.2,2-13.6,4.4-20.8,7.6c-4.4,1.6-11.6,3.2-15.2,6.4c-4.4,4.4,5.2,13.6,7.6,17.2
				c4.4,6.4,8.4,5.2,14.8,2c6.4-3.2,12.8-6,19.2-8.8c3.2-1.2,6-2.4,9.2-3.6c2-0.8,5.2-0.8,6.8-2c3.2-2.8-5.2-11.6-6.8-13.6
				C559.2,239.5,556.4,238.3,548.4,240.7z"/>
		</g>
	</g>
</mask>
<rect x="158" y="86.7" mask="url(#SVGID_1_)" width="480" height="422.8"/>
</svg>
