<?xml version="1.0" encoding="utf-8"?>
<!-- Generator: Adobe Illustrator 18.0.0, SVG Export Plug-In . SVG Version: 6.00 Build 0)  -->
<!DOCTYPE svg PUBLIC "-//W3C//DTD SVG 1.1//EN" "http://www.w3.org/Graphics/SVG/1.1/DTD/svg11.dtd">
<svg version="1.1" id="Isolation_Mode" xmlns="http://www.w3.org/2000/svg" xmlns:xlink="http://www.w3.org/1999/xlink" x="0px"
	 y="0px" viewBox="0 0 124.1 130.5" enable-background="new 0 0 124.1 130.5" xml:space="preserve">
<g>
	<g>
		<g>
			<g>
				<g>
					<circle fill="#E0E0E0" cx="62" cy="65.3" r="44.4"/>
				</g>
			</g>
		</g>
	</g>
	<g>
		<g>
			<g>
				<circle cx="45.4" cy="52.9" r="4.2"/>
			</g>
			<g>
				<circle cx="77.7" cy="52.9" r="6.2"/>
			</g>
			<g>
				<path d="M47.1,76.6c0.2,0,0.4,0.1,0.6,0.2l6.8,5.7l6.8-5.7c0.3-0.3,0.8-0.3,1.2,0l6.8,5.7l6.8-5.7c0.3-0.3,0.8-0.3,1.2,0
					l7.4,6.2c0.4,0.3,0.4,0.9,0.1,1.3c-0.3,0.4-0.9,0.4-1.3,0.1l-6.8-5.7l-6.8,5.7c-0.3,0.3-0.8,0.3-1.2,0l-6.8-5.7L55,84.4
					c-0.3,0.3-0.8,0.3-1.2,0l-6.8-5.7l-6.8,5.7c-0.4,0.3-1,0.3-1.3-0.1c-0.3-0.4-0.3-1,0.1-1.3l7.4-6.2
					C46.6,76.7,46.8,76.6,47.1,76.6z"/>
			</g>
		</g>
		<g>
			<circle fill="#FFFFFF" cx="36.1" cy="68.9" r="1.4"/>
			<circle fill="#FFFFFF" cx="36.1" cy="65.1" r="1.4"/>
			<circle fill="#FFFFFF" cx="32.7" cy="66.9" r="1.4"/>
		</g>
		<g>
			<circle fill="#FFFFFF" cx="82.6" cy="65.7" r="1.4"/>
			<circle fill="#FFFFFF" cx="82.6" cy="69.5" r="1.4"/>
			<circle fill="#FFFFFF" cx="86" cy="67.7" r="1.4"/>
		</g>
	</g>
</g>
</svg>
