<?xml version="1.0" encoding="utf-8"?>
<!-- Generator: Adobe Illustrator 18.0.0, SVG Export Plug-In . SVG Version: 6.00 Build 0)  -->
<!DOCTYPE svg PUBLIC "-//W3C//DTD SVG 1.1//EN" "http://www.w3.org/Graphics/SVG/1.1/DTD/svg11.dtd">
<svg version="1.1" id="Layer_1" xmlns="http://www.w3.org/2000/svg" xmlns:xlink="http://www.w3.org/1999/xlink" x="0px" y="0px"
	 viewBox="0 0 28.5 47.9" enable-background="new 0 0 28.5 47.9" xml:space="preserve">
<g>
	<g>
		<g>
			<g>
				<g>
					<path fill="#49CF98" d="M19.5,1.6C19.8,0.7,19.3,0,18.3,0H1.7C0.8,0,0,0.8,0,1.7v35.8c0,0.9,0.8,1.7,1.7,1.7h25.2
						c0.9,0,1.7-0.8,1.7-1.7V13.3c0-0.9-0.6-2.1-1.4-2.6l-7.4-5.1C19,5,18.7,3.9,19,3L19.5,1.6z"/>
				</g>
				<g>
					<path fill="#009357" d="M23,1.4c-0.5-0.8-1.2-0.7-1.5,0.2l-0.2,0.6c-0.3,0.9,0.1,2,0.8,2.5l5.1,3.5c0.8,0.5,0.9,0.3,0.4-0.4
						L23,1.4z"/>
				</g>
			</g>
		</g>
		<text transform="matrix(1 0 0 1 3.7826 23.9432)" fill="#FFFFFF" font-family="'GothamRounded-Medium'" font-size="10.0948">CSV</text>
	</g>
	<polygon fill="#49CF98" stroke="#FFFFFF" stroke-width="0.8412" stroke-miterlimit="10" points="17.5,39.7 17.5,33.5 11,33.5 
		11,39.7 7.1,39.7 14.3,47.3 21.4,39.7 	"/>
</g>
</svg>
