<?xml version="1.0" encoding="utf-8"?>
<!-- Generator: Adobe Illustrator 18.0.0, SVG Export Plug-In . SVG Version: 6.00 Build 0)  -->
<!DOCTYPE svg PUBLIC "-//W3C//DTD SVG 1.1//EN" "http://www.w3.org/Graphics/SVG/1.1/DTD/svg11.dtd">
<svg version="1.1" id="Layer_1" xmlns="http://www.w3.org/2000/svg" xmlns:xlink="http://www.w3.org/1999/xlink" x="0px" y="0px"
	 viewBox="180 0 612 612" enable-background="new 180 0 612 612" xml:space="preserve">
<g>
	<path fill="#FFFFFF" d="M609.3,301.3c-2.8-2.3-6.1-2-8.6-5c-2.1-2.8-3.7-6.3-4-9.8c-0.3-3.4,1.5-6,1.7-9c0.6-7.8,6.4-9,11.8-3.7
		c3.5,3.4,9,7.3,12.7,1.5c1.5-2.6,3.4-7,2.3-11.6c-3.2-10.3-9.9-11.8-13.9-10.4c-5,2-9.6-4.9-10.9-9.2c-0.8-3.4-0.3-6.6-1.5-9.9
		c-1.2-3.5-3.4-6.9-6.6-9c-3.4-2-7.3-2.1-9.9,1.1c-4.3,5.5-1.2,14.5,2.9,19.3c2.3,2.6,6.3,5.2,9.9,3.8c4.4-1.7,8.7,4.3,10.1,7.5
		c2.3,5.2-0.8,11.9-7.2,9.8c-5.5-1.8-8-10.7-15.3-7.3c-5.4,2.4-6.1,9.5-5,14.5c1.1,4.9,1.2,15.8-6.7,15.5c-3.1-0.2-5.2-2-8.6-0.9
		c-2.1,0.8-3.2,2.6-5.2,3.7c-6,3.5-12.9-3.5-14.4-8.9c-1.7-6-2.9-11.5-8.6-15.3c-4.7-2.9-9.2-2.3-13.6,0.5
		c-4.4,2.6-10.6-0.3-13.6-3.7c-2.1-2.1-2.6-3.5-2.8-6.3c-0.3-4.3-2-8.3-4.6-11.5c-3.7-5-9.6-6-13.6-10.4c-3.7-4.3-7.3-13.8-2.1-18.2
		c3.4-2.9,3.1-7.8,7.3-9.6c7.5-3.2,12.4,2,17,7c3.1,3.5,7.8,6.4,12.5,6c8.3-0.8,6.4-11,13.6-11.9c10.7-1.5,13.8,16.1,24.8,12.1
		c11.9-4.3,2.3-22.9-5.5-26.6c-5.5-2.6-9.5-8.3-9.9-14.5c-0.3-3.2,2-5.4,2.4-8.6c0.6-3.8-0.6-8-2.6-11.3c-2.4-4.3-6.6-8.3-11.6-9.2
		c-8.6-1.7-10.4,7.8-8.4,14.1c1.7,5.5,6,10.9,11.3,12.9c5.5,2,9.6,9.8,9.3,15.5c-0.2,2.6-2,4.6-2.6,7.3c-0.6,3.2-3.1,4.6-6.3,4.4
		c-7.5-0.3-9.6-7.8-15.1-11.5c-4.1-2.8-9.5-3.8-13.6-0.6c-2.3,2-2.4,4.6-4.1,6.9c-1.7,2.4-4.7,3.4-7.5,3.2c-8-0.3-10.1-7-15.5-11.3
		c-2.8-2.1-6.1-2.9-8.7-5.4c-2.8-2.6-4.9-6.4-5.7-10.4c-1.1-4.6,0.5-6.9,3.4-10.1s3.2-7.8,2.3-11.6c-1.7-8.9-10.6-17.1-20-17.4
		c-10.3-0.3-13.3,9.9-9.8,18.2c1.4,3.2,3.7,6.3,6.3,8.7c2.6,2.3,6,3.4,8.6,5.7c4.7,3.8,9.6,12.9,6.6,19c-1.2,2.4-3.7,3.7-4.7,6.3
		c-1.1,2.6-1.4,5.5-1.1,8.3c1.1,7.2,6.4,13.8,13.2,16.7c6.1,2.4,9.9,9.6,9.9,16.2c0.2,6.6-6.4,10.1-6.4,17.1
		c0.2,4.4,1.7,8.7,4.3,12.1c2.9,3.8,7.5,6.7,8.7,11.3c1.1,3.8,0.6,8.3-0.8,11.5c-1.4,3.4-4.4,4.7-7.3,6.6c-3.1,2.1-5.5,5.7-9.2,6.4
		c-4.4,0.8-9.6-0.6-13-3.4c-5.2-3.8-5.7-11-11-15.1c-4.6-3.7-10.6-5.2-16.2-3.8c-6.4,1.5-9.2,7.8-15.3,9.2
		c-6.9,1.7-15.3-0.9-19.9-6.1c-2.1-2.4-2.9-6-4.7-8.7c-1.8-2.9-4.4-5.2-7.3-7c-5.2-3.2-11.9-4.6-18.2-3.4
		c-15.8,2.9-22.5,22-11.5,33.8c8.7,9.3,24.9,10.9,34.4,1.7c4-3.7,7.6-6,13.3-5.8c6.9,0.2,14.4,3.8,16.7,10.6
		c4.3,11.9,19.7,17.9,30.1,9.6c2.4-2,4-4.7,7-6.1c2.9-1.2,6.4-1.5,9.6-0.8c3.2,0.8,6.1,2.4,8.1,5c2.6,3.7,2.9,8.1,6.4,11.5
		c2.6,2.8,4.9,4.3,6.1,8.1c0.9,3.2,1.1,6.6,0.3,9.9c-0.2,0.8-0.5,1.7-0.6,2.4c-1.5,4.1-5.8,6.1-8.7,9c-0.3,0.3-0.8,0.8-1.1,1.1
		c-9,10.9-5.5,32,10.9,32.1c3.4,0,6.4-2,9.5-0.9c3.1,0.9,5.5,3.2,7.3,5.7c3.4,4.7,4.1,12.2,1.2,17.6c-2.4,4.4-7.3,7.5-12.4,7.6
		c-6.9,0.2-9.5-6.9-15.8-8.7c-4.9-1.4-10.1-0.2-14.1,2.9c-6.1,4.4-7.2,10.6-10.7,16.8c-2.8,4.7-7.8,8.4-13.2,9.8
		c-2.9,0.8-6.1,0.8-9-0.3c-3.7-1.7-5.5-5.4-9.2-7c-26.2-12.7-50.9,37-22,45.3c12.9,3.7,25.6-6.4,30-17.9c2.8-6.7,5.7-11.8,12.7-15
		c2.8-1.2,6.1-2.1,9.2-1.7c4,0.5,5.5,3.2,8.4,5.5c11.8,9.2,25.7-2.6,28.8-14.4c1.5-6,6.4-10.6,12.4-11.8c2.1-0.3,6.3-0.8,7.5,1.5
		c1.4,2.4,3.5,4.6,6.1,5.8c6,2.9,11.3-2.1,16.8,0.9c6.6,3.8,7.8,11.6,6.6,18.4c-1.1,6.1-0.2,13.6,4.6,18.2c3.5,3.7,9.6,4.7,13.6,1.2
		c8.7-7.3,12.4-22.5,4.1-31.5c-2.1-2.4-5.2-3.8-8.6-3.7c-3.7,0.3-6.1,2.4-9.8,0.8c-6.6-3.4-8-11-6.4-17.3
		c2.6-10.6-3.8-27.5-17.3-22.9c-4.7,1.7-9-0.6-12.1-4.7c-5.2-7-0.9-13.3-1.5-21c-0.3-3.7-1.5-7.3-3.7-10.4
		c-3.1-4.3-8.4-7.2-9.2-12.4c-0.8-4.6,0.2-9.5,2.6-12.9c3.4-4.4,8.4-5.4,10.9-11c2.8-7.2,0.6-15.9-5-21.3c-5-4.6-7.8-10.3-5.8-17.3
		c0.8-2.6,2.4-5.2,5.2-6.3c4.3-1.5,5-4.6,9.9-2.9c3.4,1.1,6.6,3.4,8.6,6.4c1.8,2.9,1.7,6.3,2.9,9.5c1.8,5.5,6.4,10.9,12.5,11.5
		c4.7,0.6,6.4-2.4,10.1-3.8c8-2.6,13.2,6.4,14.5,12.5c0.8,4.1,2.6,6.1,0.3,10.3c-1.2,2.4-3.7,5-6.4,5.7c-2.9,0.8-5.7-1.2-8.6-0.6
		c-3.1,0.6-5.7,2.4-7.3,5c-5.8,8.7-3.4,25.6,8.9,27.5c4.7,0.9,6.6-2,10.4-3.8c6.6-3.4,13.9,4.1,14.5,10.3c0.3,5.5,3.2,11.8,8.4,14.1
		c5.2,2.1,7.3-1.1,11.2-3.5c4.7-3.2,10.4,1.8,12.2,6.1c2.4,6,2,15.8,10.6,16.8c13.6,1.7,11.9-24.5,2.6-28.9
		c-4.6-2.1-6.9,0.9-10.1,3.2c-7.5,5.2-11.8-6.6-12.9-11.6c-1.2-5.7-5.5-12.7-12.1-12.2c-4.4,0.3-6.4,4.9-11,4.3
		c-3.1-0.3-5.7-2.1-7.5-4.6c-2.4-3.1-1.8-6.1-2.6-9.6c-0.9-4.7-1.4-14.7,4.4-17c1.7-0.8,3.2,0.8,4.7,1.2c3.2,1.1,6.4,0.2,8.9-2
		c2.6-2.4,4.3-6,4.6-9.5c0.3-4.1-1.5-7.8-1.2-11.9c0.3-4.4,3.7-11.6,9.2-9c2,0.9,4,0.8,5.7,2.1c3.2,2.6,5,7,5.5,11
		c0.3,3.5-1.7,6.4-2,9.9c-0.3,3.7,0.6,7.5,2.3,10.9c2.3,4.3,7.5,8.7,12.5,5.5c5-3.4,5.2-11.3,3.5-16.4
		C613.1,306.2,611.6,303.4,609.3,301.3z"/>
</g>
</svg>
