<?xml version="1.0" encoding="utf-8"?>
<!-- Generator: Adobe Illustrator 18.1.0, SVG Export Plug-In . SVG Version: 6.00 Build 0)  -->
<svg version="1.1" id="Layer_1" xmlns="http://www.w3.org/2000/svg" xmlns:xlink="http://www.w3.org/1999/xlink" x="0px" y="0px"
	 viewBox="0 0 792 612" enable-background="new 0 0 792 612" xml:space="preserve">
<g>
	<g>
		<rect x="202.3" y="257.8" transform="matrix(0.9125 0.409 -0.409 0.9125 148.2136 -55.0703)" width="1.2" height="122.4"/>
	</g>
	<g>
		<polygon points="228.4,261.5 227.6,260.7 310.4,180.7 311.2,181.1 		"/>
	</g>
	<g>
		<polygon points="231.6,263.5 230.8,262.7 408.8,154.3 409.2,155.1 		"/>
	</g>
	<g>
		<polygon points="264.4,338.7 230.8,269.1 231.6,268.7 265.2,338.3 		"/>
	</g>
	<g>
		<polygon points="420,396.7 227.6,263.5 228,262.7 420.4,395.9 		"/>
	</g>
	<g>
		<rect x="224.4" y="175.6" transform="matrix(0.9941 0.1086 -0.1086 0.9941 20.7092 -27.8701)" width="83.6" height="1.2"/>
	</g>
	<g>
		<polygon points="385.2,273.1 216.4,178.3 217.2,177.1 386,271.9 		"/>
	</g>
	<g>
		
			<rect x="305.2" y="57.7" transform="matrix(5.579441e-02 0.9984 -0.9984 5.579441e-02 449.3997 -153.4755)" width="1.2" height="206.4"/>
	</g>
	<g>
		<polygon points="420,396.7 200,167.9 200.4,167.5 420.8,395.9 		"/>
	</g>
	<g>
		<rect x="188.5" y="165.3" transform="matrix(0.9916 0.1297 -0.1297 0.9916 36.6334 -22.2401)" width="1.2" height="209.6"/>
	</g>
	<g>
		<rect x="172.6" y="218" transform="matrix(0.2581 0.9661 -0.9661 0.2581 371.9239 -47.0847)" width="88" height="1.2"/>
	</g>
	<g>
		<polygon points="265.2,339.1 264.4,338.3 360.8,285.9 361.2,287.1 		"/>
	</g>
	<g>
		<rect x="286.6" y="177.3" transform="matrix(0.9556 0.2946 -0.2946 0.9556 88.772 -73.1512)" width="1.2" height="161.6"/>
	</g>
	<g>
		<rect x="220.6" y="309.3" transform="matrix(0.3838 0.9234 -0.9234 0.3838 465.5465 15.4091)" width="1.2" height="94.4"/>
	</g>
	<g>
		<rect x="259.7" y="366.8" transform="matrix(0.9377 0.3474 -0.3474 0.9377 148.9878 -96.1632)" width="166" height="1.2"/>
	</g>
	<g>
		
			<rect x="179.8" y="386.6" transform="matrix(0.9971 7.621635e-02 -7.621635e-02 0.9971 30.3836 -21.752)" width="240.8" height="1.2"/>
	</g>
	<g>
		<rect x="476.4" y="329.6" transform="matrix(0.158 0.9874 -0.9874 0.158 783.753 -145.1345)" width="1.2" height="114.8"/>
	</g>
	<g>
		<rect x="469.3" y="331.5" transform="matrix(0.3277 0.9448 -0.9448 0.3277 661.7469 -265.8298)" width="96.8" height="1.2"/>
	</g>
	<g>
		<rect x="460.8" y="272.7" transform="matrix(0.804 0.5947 -0.5947 0.804 293.2996 -207.4901)" width="1.2" height="136.8"/>
	</g>
	<g>
		<g>
			<g>
				<polygon points="419.6,396.3 388.4,274.3 389.2,273.9 420.8,396.3 				"/>
			</g>
		</g>
	</g>
	<g>
		<rect x="388.9" y="279.9" transform="matrix(0.9941 0.1082 -0.1082 0.9941 32.9674 -46.5793)" width="113.6" height="1.2"/>
	</g>
	<g>
		<polygon points="502,287.1 502,285.9 614.8,262.7 614.8,263.5 		"/>
	</g>
	<g>
		<polygon points="535.6,378.3 534.8,377.5 614.8,262.7 615.6,263.5 		"/>
	</g>
	<g>
		<rect x="516.2" y="212.3" transform="matrix(0.5663 0.8242 -0.8242 0.5663 495.8878 -282.9746)" width="1.2" height="234.8"/>
	</g>
	<g>
		<rect x="359.9" y="117.9" transform="matrix(0.2607 0.9654 -0.9654 0.2607 428.5935 -223.9545)" width="1.2" height="100"/>
	</g>
	<g>
		<rect x="290.5" y="226.1" transform="matrix(0.6339 0.7734 -0.7734 0.6339 303.3329 -187.5103)" width="118.4" height="1.2"/>
	</g>
	<g>
		<rect x="397.8" y="153.6" transform="matrix(0.9842 0.1771 -0.1771 0.9842 44.1267 -67.1846)" width="1.2" height="120"/>
	</g>
	<g>
		
			<rect x="408.5" y="159.5" transform="matrix(0.9954 9.582596e-02 -9.582596e-02 0.9954 17.4923 -43.9866)" width="116.4" height="1.2"/>
	</g>
	<g>
		<rect x="512.7" y="164.6" transform="matrix(0.9826 0.1859 -0.1859 0.9826 50.7442 -91.5093)" width="1.2" height="120.4"/>
	</g>
	<g>
		<rect x="504.5" y="213.4" transform="matrix(0.6839 0.7296 -0.7296 0.6839 336.1059 -347.6769)" width="129.6" height="1.2"/>
	</g>
	<g>
		<rect x="457.6" y="134" transform="matrix(0.6093 0.7929 -0.7929 0.6093 351.721 -278.186)" width="1.2" height="167.6"/>
	</g>
	<g>
		<rect x="375" y="220" transform="matrix(0.577 0.8168 -0.8168 0.577 372.9366 -278.7539)" width="161.2" height="1.2"/>
	</g>
	<g>
		<polygon points="534.8,374.3 524,166.7 525.2,166.7 535.6,374.3 		"/>
	</g>
	<g>
		<polygon points="420.8,396.3 419.6,395.9 524.4,166.3 525.2,166.7 		"/>
	</g>
	<g>
		<rect x="395.6" y="208.5" transform="matrix(0.8851 0.4654 -0.4654 0.8851 156.1415 -214.2546)" width="232.8" height="1.2"/>
	</g>
	<g>
		<polygon points="533.6,378.3 264.8,339.1 264.8,338.3 533.6,377.1 		"/>
	</g>
	<ellipse cx="420" cy="396.3" rx="14.8" ry="14.8"/>
	<path d="M514,286.7c0,6.4-5.2,12-12,12c-6.4,0-12-5.2-12-12s5.2-12,12-12C508.4,274.7,514,279.9,514,286.7z"/>
	<path d="M540,165.9c0,8.4-6.8,15.2-15.2,15.2c-8,0-15.2-6.8-15.2-15.2s6.8-15.2,15.2-15.2C533.2,151.1,540,157.5,540,165.9z"/>
	<ellipse cx="264.8" cy="338.3" rx="12" ry="12"/>
	<ellipse cx="228" cy="263.1" rx="11.2" ry="11.2"/>
	<ellipse cx="312.4" cy="181.1" rx="9.2" ry="9.2"/>
	<path d="M431.6,272.7c0,24.4-20,44-44.4,44s-44.4-19.6-44.4-44s20-44,44.4-44C412,228.7,431.6,248.3,431.6,272.7z"/>
	<ellipse cx="613.6" cy="263.1" rx="23.6" ry="23.2"/>
	<ellipse cx="177.6" cy="374.3" rx="22.8" ry="22.4"/>
	<path d="M426,154.7c0,9.6-7.6,17.2-17.2,17.2c-9.6,0-17.2-7.6-17.2-17.2s7.6-17.2,17.2-17.2C418.4,137.5,426,145.5,426,154.7z"/>
	<path d="M225.2,166.7c0,12-10,22.4-22.4,22.4s-22.4-10-22.4-22.4c0-12,10-22.4,22.4-22.4S225.2,154.3,225.2,166.7z"/>
	<path d="M547.2,377.9c0,6.4-5.6,12-12,12s-12-5.6-12-12c0-6.8,5.6-12,12-12S547.2,371.1,547.2,377.9z"/>
</g>
</svg>
