<?xml version="1.0" encoding="utf-8"?>
<!-- Generator: Adobe Illustrator 18.0.0, SVG Export Plug-In . SVG Version: 6.00 Build 0)  -->
<!DOCTYPE svg PUBLIC "-//W3C//DTD SVG 1.1//EN" "http://www.w3.org/Graphics/SVG/1.1/DTD/svg11.dtd">
<svg version="1.1" id="Isolation_Mode" xmlns="http://www.w3.org/2000/svg" xmlns:xlink="http://www.w3.org/1999/xlink" x="0px"
	 y="0px" viewBox="0 0 124.1 130.5" enable-background="new 0 0 124.1 130.5" xml:space="preserve">
<g>
	<g>
		<g>
			<g>
				<g>
					<circle fill="#FDA400" cx="63.8" cy="72.4" r="44.8"/>
				</g>
			</g>
		</g>
	</g>
	<g>
		<g>
			<defs>
				<path id="SVGID_1_" d="M112.2,15.2H15.4v70.1h5.5c5.5,18.5,22.6,32,42.9,32s37.4-13.4,42.9-32h5.5L112.2,15.2L112.2,15.2z"/>
			</defs>
			<clipPath id="SVGID_2_">
				<use xlink:href="#SVGID_1_"  overflow="visible"/>
			</clipPath>
			<g clip-path="url(#SVGID_2_)">
				<g>
					<g>
						<g>
							<g>
								<defs>
									<rect id="SVGID_3_" x="19.5" y="0" width="117.3" height="117.3"/>
								</defs>
								<clipPath id="SVGID_4_">
									<use xlink:href="#SVGID_3_"  overflow="visible"/>
								</clipPath>
								<path opacity="0.1" clip-path="url(#SVGID_4_)" fill="#1D1D1B" enable-background="new    " d="M123.8,102.4
									c0-1.3-0.3-2.5-0.7-3.6c-0.2-0.6-0.5-1.1-0.8-1.7c-0.5-0.8-1.1-1.6-1.7-2.2c-0.4-0.4-0.9-0.8-1.4-1.2
									c-1.3-0.9-2.7-1.6-4.2-1.8l-12.7-2.3c-0.3-0.1-0.6-0.1-0.8-0.2c-0.1,0-0.1-0.1-0.2-0.1c-0.2-0.1-0.4-0.1-0.6-0.1
									c-0.1,0-0.1-0.1-0.3-0.1c-0.2-0.1-0.4-0.1-0.6-0.2c-0.1,0-0.1-0.1-0.1-0.1c-0.2-0.1-0.5-0.2-0.7-0.4
									c-0.1-0.1-0.1-0.1-0.2-0.1c-0.1-0.1-0.4-0.2-0.5-0.3c-0.1-0.1-0.1-0.1-0.3-0.1c-0.1-0.1-0.3-0.2-0.4-0.3
									c-0.1-0.1-0.1-0.1-0.2-0.2c-0.1-0.1-0.3-0.3-0.5-0.4C96.6,87,96.6,87,96.5,87c-0.2-0.1-0.4-0.4-0.6-0.6
									c-0.1-0.1-0.1-0.1-0.1-0.1c-0.1-0.1-0.3-0.3-0.4-0.4c-0.1-0.1-0.1-0.1-0.2-0.2c-0.1-0.1-0.2-0.3-0.3-0.4
									c-0.1-0.1-0.1-0.1-0.1-0.2c-0.1-0.1-0.2-0.3-0.3-0.5c-0.1-0.1-0.1-0.1-0.1-0.2l0,0c19.9-20.9,24.3-56,3.3-58.3
									c-12.4-6.9-28.1-6.3-37.3,5.5c-14.8,19.1-0.2,44.8-7,60.2L51.8,92c-1.6,0.3-3,0.9-4.2,1.8c-0.8,0.6-1.4,1.2-2.1,1.9
									c-0.4,0.5-0.8,1-1.1,1.5c-0.3,0.6-0.6,1.1-0.8,1.7c-0.4,1.1-0.7,2.4-0.7,3.6l-1.8,20.6h84.4L123.8,102.4z"/>
							</g>
							<g>
								<path fill="#F6D3A9" d="M55.3,49.9c0.8,3.4,3.6,7.4,4.9,7.1c1.3-0.3,1.7-3.3,1-6.6c-0.8-3.4-2.4-5.9-3.7-5.7
									C56.2,45,54.5,46.4,55.3,49.9z"/>
								<path fill="#F6D3A9" d="M101.1,49.9c-0.8,3.4-3.6,7.4-4.9,7.1c-1.3-0.3-1.7-3.3-1-6.6c0.8-3.4,2.4-5.9,3.7-5.7
									C100.2,45,101.9,46.4,101.1,49.9z"/>
								<path fill="#7A4900" d="M41.4,93.7c1.2,2.4,29.1,1.7,45.7-13.1c21.6-20.6,27-58,5.3-60.3c-12.3-7-28.1-6.4-37.3,5.4
									C37.4,48.6,61.7,80.9,41.4,93.7z"/>
								<path fill="#F6D3A9" d="M88.1,74.8v-7.6H68.3c0,0,0,3.4,0,7.6s-4,8.3-8.8,9.1l-12.9,2.3c-4.9,0.8-8.8,5.6-8.8,10.5L36,117.3
									h84.4l-1.8-20.6c0-4.9-4-9.7-8.8-10.5l-12.9-2.3C92,83.1,88.1,79,88.1,74.8z"/>
								<path opacity="0.1" enable-background="new    " d="M68.3,67.2c0,0,0,3.4,0,7.6c0,0.4,0,0.6-0.1,0.9
									c2.6,2.5,6.1,4.9,10.3,6.4c5.9,2.1,11.7,2.3,15.7,1c-3.6-1.6-6.2-4.9-6.2-8.3v-7.5H68.3z"/>
								<path fill="#FEFBCF" d="M118.6,96.7c0-4.9-4-9.7-8.8-10.5l-12.9-2.3c-1.9-0.4-3.6-1.1-5.1-2.3c-2.9,1.8,5.9,17.8-13.6,17.7
									S67.3,84.2,63.9,82.1c-1.3,0.9-2.8,1.6-4.5,1.8l-12.9,2.3c-4.9,0.8-8.8,5.6-8.8,10.5L36,117.4h84.4L118.6,96.7z"/>
								<path opacity="0.1" fill="#1D1D1B" enable-background="new    " d="M88.8,104.3c0-1.6-0.4-3-1.1-4.5
									c-0.1-0.3-0.3-0.6-0.4-0.8c-1.6-2.7-4.3-4.7-7.4-5.2l-10.9-1.9l-1.9-0.4c-0.3-0.1-0.6-0.1-0.8-0.2c-0.1,0-0.1-0.1-0.3-0.1
									c-0.2-0.1-0.4-0.1-0.6-0.1c-0.1,0-0.2-0.1-0.3-0.1h-0.1c-0.2-0.1-0.5-0.2-0.7-0.3h-0.1c-0.2-0.1-0.4-0.2-0.6-0.3
									c-0.1,0-0.1-0.1-0.2-0.1c-0.1-0.1-0.4-0.2-0.5-0.3C63,90,62.9,90,62.8,89.9c-0.2-0.1-0.4-0.3-0.6-0.4
									c-0.1-0.1-0.1-0.1-0.2-0.1c-0.1-0.1-0.3-0.3-0.5-0.4c-0.1-0.1-0.1-0.1-0.1-0.1c-0.2-0.1-0.4-0.4-0.6-0.6
									c-0.1-0.1-0.1-0.1-0.1-0.1c-0.1-0.1-0.3-0.3-0.4-0.4c-0.1-0.1-0.1-0.1-0.2-0.2c-0.1-0.1-0.2-0.3-0.3-0.4
									c-0.1-0.1-0.1-0.1-0.1-0.2c-0.1-0.1-0.2-0.3-0.3-0.5c-0.1-0.1-0.1-0.1-0.1-0.2c-0.1-0.2-0.2-0.4-0.4-0.6
									c0-0.1,0-0.1-0.1-0.1c-0.1-0.2-0.1-0.4-0.2-0.6c0-0.1-0.1-0.1-0.1-0.2c-0.1-0.1-0.1-0.3-0.1-0.5c0-0.1-0.1-0.1-0.1-0.3
									s-0.1-0.4-0.1-0.5c0-0.1,0-0.1,0-0.2c0-0.2-0.1-0.5-0.1-0.7v-1.3c4.1-4.1,7.6-10.3,9.5-17.4c0.2,0.8,0.6,1.4,1.1,1.5
									c1.3,0.3,4.7-4.3,5.5-7.8c0.8-3.5-1.6-4.9-2.8-5.2c-0.6-0.1-1.2,0.3-1.8,1.1c0.2-1.2,0.4-2.5,0.6-3.8
									c2.2-17.7-5.2-26.8-21.5-26.8c-17.7-0.1-24,10.3-22.4,26.7c0.2,1.3,0.4,2.7,0.7,4c-0.6-0.8-1.3-1.3-1.8-1.2
									c-1.3,0.3-3.5,1.8-2.8,5.2c0.8,3.4,4.2,8.1,5.5,7.8c0.5-0.1,0.8-0.7,1.1-1.6c1.9,7,5.5,13.1,9.5,17.2c0,0.5,0,1,0,1.6
									c0,0.2,0,0.4-0.1,0.6c0,0.1,0,0.1,0,0.2c-0.4,2.5-2.1,4.9-4.5,6.5c-0.2,0.1-0.5,0.3-0.8,0.4c-0.1,0.1-0.3,0.1-0.4,0.2
									c-0.1,0.1-0.3,0.1-0.4,0.2c-0.4,0.2-0.8,0.4-1.3,0.5c-0.1,0-0.1,0.1-0.2,0.1c-0.1,0-0.2,0.1-0.3,0.1
									c-0.4,0.1-0.7,0.2-1.1,0.3l0,0l-1.9,0.4l-10.9,1.9c-3,0.6-5.7,2.6-7.4,5.2c-0.1,0.3-0.3,0.6-0.4,0.8
									c-0.7,1.4-1.1,2.9-1.1,4.5l-1.8,20.6H8h38h4.3h38.5h1.8L88.8,104.3z"/>
								<path fill="#F6D3A9" d="M59.3,57.8c3.6,11.8,11.9,20.8,18.9,20.8c7.8,0,18.7-13.1,20.4-28.4c-5.4,0.1-4-21.9-9.6-19.6
									c-8.7,7.1-18.1,5.6-23.5,10.3c-4,3.5-1.8,9.5-7,9.6C58.1,53.6,58.8,56.5,59.3,57.8z"/>
							</g>
						</g>
						<g>
							<g>
								<path fill="#C18957" d="M16.2,51.3c0.8,3.4,4.2,8.1,5.5,7.8c1.3-0.3,1.7-3.9,1-7.3c-0.8-3.4-2.4-5.9-3.7-5.7
									C17.7,46.3,15.4,47.9,16.2,51.3z"/>
								<path fill="#C18957" d="M68,51.3c-0.8,3.4-4.2,8.1-5.5,7.8c-1.3-0.3-1.7-3.9-1-7.3c0.8-3.4,2.4-5.9,3.7-5.7
									C66.5,46.3,68.8,47.9,68,51.3z"/>
								<path fill="#1D1D1B" d="M64.1,43.3c-2.9,20.9-12.6,30.8-22.1,30.8c-8.8,0-19.1-11.3-22-30.8c-1.6-16.3,4.7-26.8,22.6-26.8
									C58.8,16.5,66.2,25.6,64.1,43.3z"/>
								<path fill="#C18957" d="M52,76.1v-7.6H32.2c0,0,0,3.4,0,7.6s-4,8.3-8.8,9.1l-12.9,2.3c-4.9,0.8-8.8,5.6-8.8,10.5v20.6h80.8
									V98.1c0-4.9-4-9.7-8.8-10.5l-12.9-2.3C55.9,84.4,52,80.4,52,76.1z"/>
								<path fill="#575756" d="M82.5,98.1c0-4.9-4-9.7-8.8-10.5l-12.9-2.3C59,85,57.3,84.3,56,83.2l0,0c0,0.1,0,0.2,0,0.3
									c0,9.6-6.3,17.3-14,17.3S28,93,28,83.5c0,0,0,0,0-0.1l0,0h-0.1c-1.3,0.9-2.8,1.6-4.5,1.8l-12.9,2.3
									c-4.9,0.8-8.8,5.6-8.8,10.5L0,118.6h84.3L82.5,98.1z"/>
								<rect x="39.7" y="102.3" fill="#7F7F76" width="4.3" height="16.4"/>
								<g>
									<g>
										<rect x="39.7" y="116.3" fill="#80A2B2" width="4.3" height="0.3"/>
									</g>
									<g>
										<rect x="39.7" y="113.9" fill="#80A2B2" width="4.3" height="0.3"/>
									</g>
									<g>
										<rect x="39.7" y="111.5" fill="#80A2B2" width="4.3" height="0.3"/>
									</g>
									<g>
										<rect x="39.7" y="109.2" fill="#80A2B2" width="4.3" height="0.3"/>
									</g>
									<g>
										<rect x="39.7" y="106.8" fill="#80A2B2" width="4.3" height="0.3"/>
									</g>
									<g>
										<rect x="39.7" y="104.3" fill="#80A2B2" width="4.3" height="0.3"/>
									</g>
								</g>
								<path fill="#7F7F76" d="M41.9,103.9c9,0,16.4-8.4,17-19.1c-1.1-0.4-2.1-0.9-3-1.6l0,0c0,0.1,0,0.2,0,0.3
									c0,9.6-6.3,17.3-14,17.3s-14-7.8-14-17.3c0,0,0,0,0-0.1l0,0h-0.1C27,84,26,84.5,25,84.8C25.5,95.4,32.9,103.9,41.9,103.9z"
									/>
								<g>
									<path fill="#80A2B2" d="M34.2,98.1c-0.1-0.1-0.1-0.1-0.2-0.2l-1.3,2.8c0.1,0.1,0.1,0.1,0.2,0.2L34.2,98.1z"/>
									<path fill="#80A2B2" d="M27.9,84.8c0-0.1,0-0.2,0-0.3L25,85.4c0,0.1,0,0.2,0,0.3L27.9,84.8z"/>
									<path fill="#80A2B2" d="M32.2,96.1c-0.1-0.1-0.1-0.1-0.2-0.2l-1.6,2.6c0.1,0.1,0.1,0.1,0.2,0.2L32.2,96.1z"/>
									<path fill="#80A2B2" d="M42.3,103.9v-3c-0.1,0-0.2,0-0.3,0v3C42.1,103.9,42.1,103.9,42.3,103.9z"/>
									<path fill="#80A2B2" d="M36.6,99.6c-0.1-0.1-0.2-0.1-0.3-0.1l-0.8,2.9c0.1,0.1,0.2,0.1,0.3,0.1L36.6,99.6z"/>
									<path fill="#80A2B2" d="M30.7,93.9c-0.1-0.1-0.1-0.2-0.1-0.3l-2,2.4c0.1,0.1,0.1,0.2,0.1,0.3L30.7,93.9z"/>
									<path fill="#80A2B2" d="M28.2,87c0-0.1,0-0.2-0.1-0.3L25.3,88c0,0.1,0.1,0.2,0.1,0.3L28.2,87z"/>
									<path fill="#80A2B2" d="M28.7,89.2c0-0.1-0.1-0.2-0.1-0.3L26,90.7c0,0.1,0.1,0.2,0.1,0.3L28.7,89.2z"/>
									<path fill="#80A2B2" d="M29.5,91.6c-0.1-0.1-0.1-0.2-0.1-0.3L27,93.4c0.1,0.1,0.1,0.2,0.1,0.3L29.5,91.6z"/>
									<path fill="#80A2B2" d="M39.4,100.6c-0.1,0-0.2-0.1-0.3-0.1l-0.4,3c0.1,0,0.2,0.1,0.3,0.1L39.4,100.6z"/>
									<path fill="#80A2B2" d="M45.1,100.4c-0.1,0-0.2,0.1-0.3,0.1l0.4,3c0.1,0,0.2-0.1,0.3-0.1L45.1,100.4z"/>
									<path fill="#80A2B2" d="M55.4,88.7c0,0.1-0.1,0.2-0.1,0.3l2.6,1.8c0-0.1,0.1-0.2,0.1-0.3L55.4,88.7z"/>
									<path fill="#80A2B2" d="M54.6,91.1c-0.1,0.1-0.1,0.2-0.1,0.3l2.3,2.1c0.1-0.1,0.1-0.2,0.1-0.3L54.6,91.1z"/>
									<path fill="#80A2B2" d="M56,84.3c0,0.1,0,0.2,0,0.3l2.9,0.9c0-0.1,0-0.2,0-0.3L56,84.3z"/>
									<path fill="#80A2B2" d="M55.8,86.5c0,0.1,0,0.2-0.1,0.3l2.8,1.3c0-0.1,0.1-0.2,0.1-0.3L55.8,86.5z"/>
									<path fill="#80A2B2" d="M47.8,99.3c-0.1,0.1-0.2,0.1-0.3,0.1l0.8,2.9c0.1-0.1,0.2-0.1,0.3-0.1L47.8,99.3z"/>
									<path fill="#80A2B2" d="M50.1,97.6c-0.1,0.1-0.1,0.1-0.2,0.2l1.3,2.8c0.1-0.1,0.1-0.1,0.2-0.2L50.1,97.6z"/>
									<path fill="#80A2B2" d="M53.5,93.4c-0.1,0.1-0.1,0.2-0.1,0.3l2,2.4c0.1-0.1,0.1-0.1,0.1-0.3L53.5,93.4z"/>
									<path fill="#80A2B2" d="M52,95.6c-0.1,0.1-0.1,0.1-0.2,0.3l1.6,2.6c0.1-0.1,0.1-0.1,0.2-0.2L52,95.6z"/>
								</g>
								<path opacity="0.1" enable-background="new    " d="M32.2,68.6c0,0,0,3.4,0,7.6c0,0.4,0,0.6-0.1,0.9
									c2.6,2.5,6.1,4.9,10.3,6.4c5.9,2.1,11.7,2.3,15.7,1c-3.6-1.6-6.2-4.9-6.2-8.3v-7.5H32.2z"/>
								<path fill="#C18957" d="M62,55.2L62,55.2c-2.5-0.7,0.9-11.5-0.1-15.3c-3.7-10.2-10.7-2.4-19.7-2.5
									c-8.7-0.1-14.9-6.7-19.9,2.5c-1.5,2.8,2.3,14.1-0.1,14.8l0,0C25,68.7,34.9,80,42.1,80C49.8,80,59.2,68.9,62,55.2L62,55.2z"
									/>
								<g>
									<g>
										<circle fill="#3A4F60" cx="41.9" cy="109.2" r="1.8"/>
										<circle fill="#FFFFFF" cx="41.9" cy="109.2" r="1.2"/>
										<path fill="#8995A0" d="M42.3,109.9c-0.1,0-0.1,0-0.2-0.1l-0.8-0.8c-0.1-0.1-0.1-0.3,0-0.4c0.1-0.1,0.3-0.1,0.4,0l0.8,0.8
											c0.1,0.1,0.1,0.3,0,0.4C42.4,109.9,42.3,109.9,42.3,109.9z"/>
										<path fill="#8995A0" d="M41.4,109.9c-0.1,0-0.1,0-0.2-0.1c-0.1-0.1-0.1-0.3,0-0.4l0.8-0.8c0.1-0.1,0.3-0.1,0.4,0
											c0.1,0.1,0.1,0.3,0,0.4l-0.8,0.8C41.6,109.9,41.5,109.9,41.4,109.9z"/>
									</g>
								</g>
							</g>
						</g>
					</g>
				</g>
			</g>
		</g>
	</g>
</g>
</svg>
