<?xml version="1.0" encoding="utf-8"?>
<!-- Generator: Adobe Illustrator 18.0.0, SVG Export Plug-In . SVG Version: 6.00 Build 0)  -->
<!DOCTYPE svg PUBLIC "-//W3C//DTD SVG 1.1//EN" "http://www.w3.org/Graphics/SVG/1.1/DTD/svg11.dtd">
<svg version="1.1" id="Isolation_Mode" xmlns="http://www.w3.org/2000/svg" xmlns:xlink="http://www.w3.org/1999/xlink" x="0px"
	 y="0px" viewBox="0 0 124.1 130.5" enable-background="new 0 0 124.1 130.5" xml:space="preserve">
<g>
	<g>
		<g>
			<g>
				<circle fill="#FFF69E" cx="62" cy="65.5" r="44.4"/>
			</g>
		</g>
	</g>
</g>
<g>
	<g>
		<g>
			<circle cx="49.9" cy="45" r="5.7"/>
		</g>
		<g>
			<path d="M41.3,64.6c0,0,5.7,26.1,19.5,26.1c13.8,0,21.1-22.7,22-25C83.7,63.4,41.3,64.6,41.3,64.6z"/>
		</g>
		<g>
			<g>
				<path fill="#FFFFFF" d="M44.5,70.9c-0.6-2.3-1.4-4.3-1.8-5.3c2.7-0.1,11.1-0.3,19.3-0.3c14.7,0,18.3,0.6,19.2,0.9
					c0,0.1-0.1,0.1-0.1,0.2c-0.4,0.9-1.1,2.6-1.7,4.5H44.5z"/>
			</g>
			<g>
				<path d="M62,65.9c12.4,0,16.8,0.4,18.3,0.7c-0.4,0.9-0.9,2.2-1.4,3.7H45c-0.5-1.6-1-3.1-1.4-4.1C47,66.1,54.5,65.9,62,65.9
					L62,65.9z M62,64.7c-10.1,0-20.2,0.3-20.2,0.3s1.3,3,2.2,6.6h35.9c0.8-2.5,1.7-4.7,2-5.4C82.3,64.9,72.2,64.7,62,64.7L62,64.7z"
					/>
			</g>
		</g>
		<g>
			<path d="M79.6,49.5c0-3.1-2.5-5.7-5.7-5.7c-3.1,0-5.7,2.5-5.7,5.7H79.6z"/>
		</g>
		<g>
			<g>
				<path fill="#FFFFFF" d="M60.8,90.1c-4.1,0-6.2-2.4-8.5-5c-0.2-0.3-0.5-0.5-0.7-0.8h20.1c-0.1,0.1-0.2,0.2-0.3,0.2
					C68.6,87.3,65.5,90.1,60.8,90.1z"/>
			</g>
			<g>
				<path d="M70.2,84.9c-2.7,2.4-5.3,4.5-9.4,4.5c-3.7,0-5.6-2.1-7.8-4.5H70.2L70.2,84.9z M73.3,83.7H50.2c3,3.1,5.3,7,10.6,7
					C66.5,90.7,69.9,86.8,73.3,83.7L73.3,83.7z"/>
			</g>
		</g>
	</g>
	<g>
		<circle fill="#FFFFFF" cx="38.5" cy="58.3" r="1.4"/>
		<circle fill="#FFFFFF" cx="38.5" cy="54.5" r="1.4"/>
		<circle fill="#FFFFFF" cx="35" cy="56.3" r="1.4"/>
	</g>
	<g>
		<circle fill="#FFFFFF" cx="85.6" cy="55.1" r="1.4"/>
		<circle fill="#FFFFFF" cx="85.6" cy="58.9" r="1.4"/>
		<circle fill="#FFFFFF" cx="89.1" cy="57.2" r="1.4"/>
	</g>
</g>
</svg>
