<?xml version="1.0" encoding="utf-8"?>
<!-- Generator: Adobe Illustrator 18.0.0, SVG Export Plug-In . SVG Version: 6.00 Build 0)  -->
<!DOCTYPE svg PUBLIC "-//W3C//DTD SVG 1.1//EN" "http://www.w3.org/Graphics/SVG/1.1/DTD/svg11.dtd">
<svg version="1.1" id="Isolation_Mode" xmlns="http://www.w3.org/2000/svg" xmlns:xlink="http://www.w3.org/1999/xlink" x="0px"
	 y="0px" viewBox="0 0 124.1 130.5" enable-background="new 0 0 124.1 130.5" xml:space="preserve">
<g>
	<g>
		<g>
			<g>
				<g>
					<circle fill="#D35387" cx="62" cy="65.3" r="44.8"/>
				</g>
			</g>
		</g>
	</g>
	<g>
		<g>
			<g>
				<path d="M43.5,93.9c-6.2-2.9-9.1-26.5,18.7-26.5c27.8,0,29,21.4,19.7,26.1C77.7,95.7,47.6,95.9,43.5,93.9z"/>
			</g>
			<g>
				<path fill="#D04A43" d="M45.9,86.9c-0.5-4.1,14.9,3.2,11.1,0.1c-0.4-0.4,1.3-0.9,1.9-1.1c7.7-2.1,5.5,8.1,3.9,10.8
					c-2.1,3.6-3.6,5.3-6.2,5.1c-3.8-0.2-3.4-3.3-5.1-6.7C50,91.9,46.1,88.4,45.9,86.9z"/>
			</g>
			<g>
				<path d="M75.4,54.4c0.3,0,0.7-0.1,0.9-0.4l8-8c0.5-0.5,0.5-1.3,0-1.9c-0.5-0.5-1.3-0.5-1.9,0l-8,8c-0.5,0.5-0.5,1.3,0,1.9
					C74.7,54.3,75,54.4,75.4,54.4z"/>
			</g>
			<g>
				<path d="M83.4,54.4c0.3,0,0.7-0.1,0.9-0.4c0.5-0.5,0.5-1.4,0-1.9l-8-8c-0.5-0.5-1.4-0.5-1.9,0c-0.5,0.5-0.5,1.4,0,1.9l8,8
					C82.7,54.3,83,54.4,83.4,54.4z"/>
			</g>
			<g>
				<path d="M41.2,54.4c0.3,0,0.7-0.1,0.9-0.4l8-8c0.5-0.5,0.5-1.3,0-1.9c-0.5-0.5-1.3-0.5-1.9,0l-8,8c-0.5,0.5-0.5,1.3,0,1.9
					C40.5,54.3,40.8,54.4,41.2,54.4z"/>
			</g>
			<g>
				<path d="M49.1,54.4c0.3,0,0.7-0.1,0.9-0.4c0.5-0.5,0.5-1.4,0-1.9l-8-8c-0.5-0.5-1.3-0.5-1.9,0c-0.5,0.5-0.5,1.4,0,1.9l8,8
					C48.4,54.3,48.8,54.4,49.1,54.4z"/>
			</g>
		</g>
		<g>
			<g>
				<circle fill="#FFFFFF" cx="88.2" cy="68.8" r="1.5"/>
				<circle fill="#FFFFFF" cx="88.2" cy="64.7" r="1.5"/>
				<circle fill="#FFFFFF" cx="91.9" cy="66.6" r="1.5"/>
			</g>
			<g>
				<circle fill="#FFFFFF" cx="37.8" cy="65.3" r="1.5"/>
				<circle fill="#FFFFFF" cx="37.8" cy="69.5" r="1.5"/>
				<circle fill="#FFFFFF" cx="34.1" cy="67.5" r="1.5"/>
			</g>
		</g>
	</g>
</g>
</svg>
