<?xml version="1.0" encoding="utf-8"?>
<!-- Generator: Adobe Illustrator 18.0.0, SVG Export Plug-In . SVG Version: 6.00 Build 0)  -->
<!DOCTYPE svg PUBLIC "-//W3C//DTD SVG 1.1//EN" "http://www.w3.org/Graphics/SVG/1.1/DTD/svg11.dtd">
<svg version="1.1" id="Layer_1" xmlns="http://www.w3.org/2000/svg" xmlns:xlink="http://www.w3.org/1999/xlink" x="0px" y="0px"
	 viewBox="178.8 0 612 612" enable-background="new 178.8 0 612 612" xml:space="preserve">
<defs>
	<filter id="Adobe_OpacityMaskFilter" filterUnits="userSpaceOnUse" x="282.7" y="122.7" width="410" height="361.2">
		<feColorMatrix  type="matrix" values="1 0 0 0 0  0 1 0 0 0  0 0 1 0 0  0 0 0 1 0"/>
	</filter>
</defs>
<mask maskUnits="userSpaceOnUse" x="282.7" y="122.7" width="410" height="361.2" id="SVGID_1_">
	<g filter="url(#Adobe_OpacityMaskFilter)">
		<g>
			<path fill="#FFFFFF" d="M319,298.6c-0.6-4-16.1-29.7-20.4-26.9c-2.6,1.7-3.7,10.4-4.3,13.3c-1.2,6-2.8,14.6-1.7,20.6
				c0.6,3.4,18.1,31.2,20.6,29.2c0.9-0.8,0.3-3.8,0.3-4.9c0.2-3.8,0.3-7.5,0.8-11.2c0.3-3.8,1.2-7.5,2.1-11.2
				C317.4,304.8,319.4,301.5,319,298.6z"/>
			<path fill="#FFFFFF" d="M322.6,288.4c1.5,0.2,2.1-1.4,2.6-2.6c2.1-3.7,4.3-7.2,6.7-10.4c4.9-6.7,10.7-12.7,16.9-18.4
				c6.1-5.7,3.8-9.7-0.8-16c-2.5-3.1-9.7-17.2-15.6-13.7c-4.4,2.6-8.7,7.7-12.3,11.2c-5.5,5.4-10.4,11.4-14.4,17.9
				c-4.1,6.7-0.3,11.4,4,17C312.6,277.4,317.7,288,322.6,288.4z"/>
			<path fill="#FFFFFF" d="M366.9,238.7c5.1-3.7,9.8-7.7,14.9-11.4c5.8-4.1,12-7.7,18.3-11c5.2-2.8,2.6-7.1-0.3-10.9
				c-3.2-4.4-7.2-13-13-14.7c-3.4-0.9-8.3,2.8-11.2,4.1c-3.2,1.7-6.6,3.5-9.7,5.4c-6.1,3.8-12,8-17.8,12.3c-5.4,3.8,3.5,12.9,5.8,16
				C356.1,231.5,361.7,242.2,366.9,238.7z"/>
			<path fill="#FFFFFF" d="M324,306.1c-1.1,0.8-1.4,3.2-1.7,4.4c-0.9,3.5-2,7.2-2.6,10.9c-0.9,6.1-2.6,15.2-0.8,21.1
				c1.8,6.1,6.3,11.4,10.1,16.4c0.8,1.2,8.9,13.2,10.3,11.2c0.8-1.4,0.3-4.4,0.3-6.1c0.2-3.2,0.2-6.3,0.5-9.5
				c0.3-3.7,0.8-7.4,1.7-11c0.8-3.2,2.6-6.7,2.6-10C344.4,329.6,328,303.5,324,306.1z"/>
			<path fill="#FFFFFF" d="M372.5,290c5.7-6,3.7-10-0.9-16.1c-2.5-3.2-9.7-17.3-15.3-13.3c-4.3,2.9-8.3,7.8-11.8,11.8
				c-5.4,5.7-10,12-13.8,18.7c-3.8,6.9-0.3,11.4,4.1,17c2.8,3.7,7.8,14.3,12.7,14.6c1.5,0.2,2-1.5,2.5-2.6c1.8-3.7,4.1-7.4,6.3-10.9
				C361.1,302.2,366.7,295.9,372.5,290z"/>
			<path fill="#FFFFFF" d="M386.3,236.2c-6,4-11.7,8.4-17.2,13c-5.2,4.1,3.4,12.9,5.8,16.1c2.1,3.1,7.7,13.7,12.9,9.8
				c4.9-3.7,9.4-8.3,14.3-12.1c5.7-4.3,11.5-8.3,17.8-12c4.9-2.9,2.5-7.2-0.5-11.2c-3.2-4.3-7.2-13-12.9-14.4
				c-3.2-0.9-7.8,3.1-10.7,4.8C392.5,232.1,389.4,234.1,386.3,236.2z"/>
			<path fill="#FFFFFF" d="M349.5,340.3c-1.2,0.9-1.2,3.4-1.7,4.8c-0.9,3.7-1.8,7.4-2.5,11.2c-0.9,6.7-0.9,13.5-1.1,20.1
				c0,4.1,17.9,31.8,20.4,29.5c0.9-0.9,0.3-3.8,0.3-5.1c0-3.4,0.2-6.7,0.3-10.1c0.3-3.8,0.6-7.4,1.2-11c0.6-4,2.6-8.3,2.8-12.3
				C369.3,363.4,353,337.4,349.5,340.3z"/>
			<path fill="#FFFFFF" d="M372.4,356c1.4,0,1.8-1.8,2.3-2.8c1.8-3.8,3.7-7.5,6-11c4.1-6.7,9-12.9,14.3-18.9
				c1.8-2.1,4.8-4.3,4.9-7.4c0.2-3.7-2-6.4-4-9.2c-2.3-2.9-10.3-18.1-15.8-14c-4.3,3.1-8,8.4-11.4,12.4c-5.2,6-9.5,12.4-13,19.3
				c-3.7,6.9-0.2,11.4,4.1,17.2C362.4,345.2,367.5,355.9,372.4,356z"/>
			<path fill="#FFFFFF" d="M428.1,255.4c-3.2-0.8-7.8,3.5-10.4,5.2c-3.1,2.3-6.1,4.3-9,6.6c-5.8,4.3-11.2,9.2-16.4,13.8
				c-4.8,4.4,3.4,12.9,5.8,16.3c1.7,2.3,8.1,14,12.6,9.4c5.2-4.1,9.8-9.4,14.9-13.8c5.5-4.8,11.5-8.9,17.5-13
				c3.7-2.8-0.3-7.7-2.1-10.1C437.8,265.3,433.8,256.8,428.1,255.4z"/>
			<path fill="#FFFFFF" d="M374.4,374.3c-1.1,0.9-1.2,3.4-1.4,4.8c-0.9,3.7-1.7,7.5-2.3,11.4c-0.8,7.1-0.8,14.1-0.8,21.2
				c-0.2,6,5.2,11.8,8.4,16.4c1.2,1.7,9.7,15,11.5,13c1.1-1.1,0.3-4.1,0.3-5.4c0-3.7,0-7.2,0.3-10.7c0.3-7.8,1.5-15.3,3.4-22.8
				C395.1,397,377.4,371.5,374.4,374.3z"/>
			<path fill="#FFFFFF" d="M397.1,389.4c1.4,0,1.8-1.8,2.3-2.8c1.7-3.8,3.5-7.7,5.7-11.4c4-6.9,8.7-13.2,13.5-19.5
				c1.8-2.3,4.6-4.8,4.8-7.8c0.2-3.7-1.8-6.3-3.8-9c-2.5-2.9-10.6-18.3-15.8-13.8c-9.5,8.7-17.8,21.4-23.2,33
				c-3.4,7.1,0,11.4,4.3,17.2C387.1,378.7,392.5,389.5,397.1,389.4z"/>
			<path fill="#FFFFFF" d="M433.6,337.9c4.9-4.8,9.2-10,14.3-14.6c5.4-4.9,11-9.5,16.9-14c3.5-2.8-0.5-7.8-2.1-10.3
				c-3.1-4.1-7.1-12.9-12.6-14c-3.2-0.6-7.5,3.8-10,5.7c-3.2,2.1-6,4.6-8.9,6.9c-5.4,4.8-10.7,9.8-15.8,14.9
				c-4.8,4.6,3.2,12.7,5.8,16.3C423,331.1,429.2,342.6,433.6,337.9z"/>
			<path fill="#FFFFFF" d="M417.2,196.3c2.8,2.3,4.8,1.7,7.8,0.3c5.8-2.6,11.8-4.9,17.8-6.9c4.3-1.4,10.4-2.3,14.1-4.8
				c4.1-2.9-3.7-10.4-5.4-12.9c-3.7-5.2-6.4-6.9-12.9-5.1c-6.3,1.8-12.4,3.7-18.6,5.7c-4,1.4-9.7,2.5-13,4.9
				c-4,2.5,4.1,10.9,5.4,12.7C413.8,192.5,415.2,194.8,417.2,196.3z"/>
			<path fill="#FFFFFF" d="M494.3,182.6c5.2-1.4,10.4-2.9,16-4.1c2.9-0.6,5.8-1.1,8.7-1.4c2.1-0.2,4.8,0,6.7-0.8
				c2.9-0.9-3.8-8.7-4.9-10c-3.5-4.9-5.8-6.1-12-5.7c-5.7,0.5-11.5,1.4-17,2.6c-3.8,0.8-9.4,1.1-12.4,2.9c-3.7,2.3,3.4,9.4,4.8,11.5
				C487,181.5,489.4,183.9,494.3,182.6z"/>
			<path fill="#FFFFFF" d="M586.5,149.1c3.7-1.1,7.4-2,11-2.9c2.1-0.3,4.1-0.8,6.3-0.9c1.4-0.2,3.2,0,4.6-0.5
				c2.1-0.8-2.8-6.1-3.4-7.1c-2.6-3.4-4.1-4.3-8.4-4c-4.1,0.3-8,0.9-12,1.8c-2.6,0.6-6.4,0.8-8.6,2.1c-2.6,1.7,2.3,6.4,3.4,8
				C581.2,148.4,583.1,150.1,586.5,149.1z"/>
			<path fill="#FFFFFF" d="M674,181.1c-2.8-3.7-4.4-4.6-9.2-4.3c-4.4,0.3-8.7,0.9-13,1.8c-2.6,0.6-6.7,0.9-9.2,2.3
				c-2.8,1.8,2.6,7.2,3.7,8.7c2,2.9,3.8,4.9,7.7,3.8c4-1.1,8-2.3,12-3.1c2.3-0.5,4.4-0.9,6.7-1.1c1.5-0.3,3.5-0.2,5.1-0.6
				C680,187.7,674.8,182,674,181.1z"/>
			<path fill="#FFFFFF" d="M437.9,205.5c-4.1,1.7-9.2,3.2-12.9,5.7c-4,2.8,4.1,10.9,5.5,13c1.5,2,2.9,4.4,4.8,6.1
				c2.8,2.3,4.9,1.4,7.8-0.2c5.8-2.9,11.7-5.4,17.6-7.8c4.3-1.7,10.3-2.8,14-5.5c4.1-3.1-3.7-10.6-5.4-13c-3.8-5.2-6.4-6.9-12.9-4.8
				C450.1,201,444,203.2,437.9,205.5z"/>
			<path fill="#FFFFFF" d="M564,196.6c5.2-1.7,10.6-3.4,16-4.9c2.9-0.8,5.8-1.4,8.9-1.8c2-0.3,4.9-0.3,6.7-1.1
				c3.1-1.2-3.8-8.9-4.9-10.4c-3.7-5.1-5.8-6.3-12.3-5.4c-6,0.8-11.7,2-17.3,3.4c-3.7,0.9-9.2,1.4-12.3,3.5c-3.5,2.6,3.4,9.7,4.9,12
				C556.5,195.7,559,198.3,564,196.6z"/>
			<path fill="#FFFFFF" d="M449.5,268.3c2.8,2.3,4.9,1.2,7.8-0.3c5.7-3.2,11.4-6,17.3-8.7c4-1.8,10.3-3.1,13.5-6
				c3.8-3.4-3.7-10.7-5.5-13.3c-3.8-5.2-6.4-6.9-12.7-4.4c-6.1,2.3-12.3,4.8-18.3,7.4c-3.8,1.5-9.4,3.4-12.6,6.1
				c-3.8,2.9,4,11,5.7,13.2C446.1,264.3,447.5,266.6,449.5,268.3z"/>
			<path fill="#FFFFFF" d="M523,221.4c-6,1.1-11.8,2.6-17.6,4.4c-3.7,1.1-9.5,1.7-12.4,4.1c-3.7,2.9,3.5,10.1,5.2,12.4
				c2.9,4,5.4,6.7,10.4,4.8c5.8-2.1,11.8-4.4,17.8-6.1c2.9-0.9,6-1.7,9-2.3c1.7-0.3,4.3-0.3,5.7-1.2c2.8-1.8-4.1-9.2-5.4-10.9
				C531.8,221.3,529.7,220.4,523,221.4z"/>
			<path fill="#FFFFFF" d="M472.5,297.5c2.8,2.1,4.9,0.9,7.4-0.8c5.2-3.2,10.4-6.3,16-9c4-2,10.3-3.7,13.3-6.7c3.7-3.5-4-11.2-6-14
				c-3.4-4.8-6.1-5.5-11.5-3.2c-5.7,2.6-11.5,5.1-17,8c-4,2-9,4-12.3,6.9c-3.7,3.2,3.8,10.7,5.5,13
				C469.3,293.5,470.7,295.9,472.5,297.5z"/>
			<path fill="#FFFFFF" d="M598,234.7c1.7-0.3,4.4-0.6,5.8-1.7c2.8-2.1-4.3-9.5-5.7-11.4c-4.1-5.7-6.3-6.4-13.2-4.9
				c-6.1,1.4-12,3.2-17.8,5.4c-3.7,1.2-10,2.3-12.9,5.1c-3.8,3.4,4.4,11.5,6.4,14.4c3.4,4.8,6.3,4.9,11.4,2.8
				c5.4-2.5,10.9-4.8,16.6-6.7C591.7,236.5,594.7,235.5,598,234.7z"/>
			<path fill="#FFFFFF" d="M400.6,408.7c-1.1,0.9-1.1,3.4-1.4,4.8c-0.8,3.4-1.5,6.9-2,10.4c-0.9,7.8-0.8,15.8-0.9,23.4
				c0,6.1,5.1,11.8,8.4,16.6c1.1,1.7,9.5,14.7,11.4,12.7c0.9-1.1,0.3-4,0.3-5.2c0-3.2,0-6.7,0.2-10c0.2-7.4,0.9-14.7,2.6-21.8
				c1.5-7.2-1.2-11.4-5.5-17.2C412.2,420.5,403.2,406.2,400.6,408.7z"/>
			<path fill="#FFFFFF" d="M428.7,358c-3.7,3.4-6.4,8.3-9.4,12.3c-4.8,6.4-8.9,13.3-12.3,20.6c-1.2,2.6-2.9,5.2-2.3,8.3
				c0.8,3.7,2.9,6.4,5.1,9.4c1.2,1.8,11,17.6,14,14.6c0.9-1.1,1.4-2.9,1.8-4.1c1.7-4,3.7-8,5.7-11.8c3.8-7.1,8.4-13.5,13.2-20.1
				c4.8-6.7,3.2-10.4-1.4-16.9C441.1,367.5,433.6,353.4,428.7,358z"/>
			<path fill="#FFFFFF" d="M472.3,315.6c-2.9,0.2-6.7,4.6-8.9,6.3c-3.1,2.5-6,4.9-8.7,7.7c-2.3,2.1-4.6,4.4-6.9,6.7
				c-2.6,2.8-6.7,5.8-8.4,9.4c-2.9,5.8,4.4,12.9,7.7,16.9c1.7,2.5,7.1,11.8,10.9,7.2c3.7-5.4,8.7-10.3,13.3-15
				c5.2-5.4,10.9-10.3,16.6-15c3.2-3.1-0.3-7.8-2.3-10.3C482.8,325.6,477.9,315.3,472.3,315.6z"/>
			<path fill="#FFFFFF" d="M511.2,290.6c-5.8,2.9-11.7,5.8-17.3,9.2c-3.4,2-7.8,4-10.9,6.7c-3.7,3.4,4,11,5.8,13.5
				c1.4,2.1,2.8,4.4,4.8,6.1c2.8,2.3,4.9,0.8,7.5-1.1c5.2-3.7,10.6-7.1,16.1-10.3c4.1-2.3,9.8-4.3,13.3-7.5c4.1-3.8-4.3-12-6.4-15
				C519.9,286.6,516.7,287.8,511.2,290.6z"/>
			<path fill="#FFFFFF" d="M616.3,254.3c-6.1,1.7-11.8,3.8-17.6,6.3c-3.8,1.2-9.8,2.8-12.9,5.5c-3.7,3.7,4.4,11.7,6.6,14.7
				c3.8,5.4,7.2,4.3,12.7,1.7c5.4-2.6,10.9-5.2,16.4-7.4c2.6-1.1,5.1-2,7.7-2.9c1.7-0.6,4.4-0.8,5.8-1.8c2.8-2.5-4.3-9.7-5.7-11.7
				C625.3,253.2,622.9,252.3,616.3,254.3z"/>
		</g>
	</g>
</mask>
<rect x="282.7" y="122.7" mask="url(#SVGID_1_)" fill="#FFFFFF" width="410" height="361.2"/>
</svg>
