<?xml version="1.0" encoding="utf-8"?>
<!-- Generator: Adobe Illustrator 18.0.0, SVG Export Plug-In . SVG Version: 6.00 Build 0)  -->
<!DOCTYPE svg PUBLIC "-//W3C//DTD SVG 1.1//EN" "http://www.w3.org/Graphics/SVG/1.1/DTD/svg11.dtd">
<svg version="1.1" id="Isolation_Mode" xmlns="http://www.w3.org/2000/svg" xmlns:xlink="http://www.w3.org/1999/xlink" x="0px"
	 y="0px" viewBox="0 0 124.1 130.5" enable-background="new 0 0 124.1 130.5" xml:space="preserve">
<g>
	<g>
		<g>
			<g>
				<g>
					<circle fill="#D35387" cx="61.9" cy="74.8" r="45.5"/>
				</g>
			</g>
		</g>
	</g>
	<g>
		<g>
			<defs>
				<path id="SVGID_1_" d="M61.9,1.7c25.2,0,45.5,1.5,45.5,73.1c0,25.2-20.4,45.5-45.5,45.5S16.3,100,16.3,74.8
					C16.3,6.8,36.7,1.7,61.9,1.7z"/>
			</defs>
			<clipPath id="SVGID_2_">
				<use xlink:href="#SVGID_1_"  overflow="visible"/>
			</clipPath>
			<g clip-path="url(#SVGID_2_)">
				<g>
					<g>
						<defs>
							<rect id="SVGID_3_" x="0" y="0" width="124.1" height="124.1"/>
						</defs>
						<clipPath id="SVGID_4_">
							<use xlink:href="#SVGID_3_"  overflow="visible"/>
						</clipPath>
						<path opacity="0.1" clip-path="url(#SVGID_4_)" fill="#1D1D1B" enable-background="new    " d="M117.9,108.9
							c0-1.3-0.3-2.6-0.7-3.8c-0.2-0.6-0.5-1.2-0.9-1.8s-0.7-1.1-1.2-1.6c-0.6-0.8-1.4-1.4-2.2-2c-1.3-0.9-2.9-1.7-4.5-1.9l-11.6-2
							l-2-0.4c-0.3-0.1-0.6-0.1-0.9-0.2c-0.1,0-0.1-0.1-0.3-0.1c-0.2-0.1-0.4-0.1-0.6-0.2c-0.1,0-0.2-0.1-0.3-0.1
							c-0.1-0.1-0.3-0.1-0.4-0.1l0.1-0.4l-2.4-5.1c5.5-2.4,9.1-10.4,2.9-16.1c1.5-2.2,2.8-4.4,3.9-6.5c1.5-1,3.6-4.4,4.2-7.3
							c0.3-1.2,0.2-2.2,0-3c8.4-28.5-19.3-40.6-41-28.3c-11.2-0.3-17,13.4-9.8,26.2c-1.1,0.7-2.1,2.3-1.4,5.1
							c0.8,3.6,3.9,7.8,5.2,7.5c0.3-0.1,0.5-0.2,0.7-0.5C56.8,73,60.2,79,64,83.2c-1.2,0.5-1.8,1.1-1.9,1.6C62,84.9,62,85,61.9,85.3
							l-4.2,9l0.1,0.3c-0.1,0-0.1,0.1-0.2,0.1c-0.3,0.1-0.5,0.2-0.8,0.3c-0.1,0-0.2,0.1-0.4,0.1c-0.4,0.1-0.8,0.2-1.2,0.3l-13.6,2.4
							c-1.6,0.3-3.2,0.9-4.5,1.9c-0.8,0.6-1.5,1.3-2.2,2c-0.4,0.5-0.8,1.1-1.2,1.6c-0.4,0.6-0.6,1.2-0.9,1.8
							c-0.5,1.2-0.7,2.5-0.7,3.8l-1.9,21.8h89.3L117.9,108.9z"/>
					</g>
					<g>
						<path fill="#F6D3A9" d="M35.9,52.8c0.8,3.6,3.9,7.8,5.2,7.5c1.4-0.3,1.8-3.5,1-7c-0.8-3.6-2.5-6.3-3.9-6
							C36.9,47.6,35.1,49.2,35.9,52.8z"/>
						<path fill="#F6D3A9" d="M88.2,52.8c-0.8,3.6-3.9,7.8-5.2,7.5c-1.4-0.3-1.8-3.5-1-7c0.8-3.6,2.5-6.3,3.9-6
							C87.2,47.6,89,49.2,88.2,52.8z"/>
						<path fill="#1A1A1A" d="M80.1,66.6c9.7,8.8-4.2,23.4-12.6,13.4c-9.3,0-20.2-11.6-27.5-28.3c-11-13.8-5.3-30.6,7-30.2
							C72.8,6.9,106.7,26.4,80.1,66.6z"/>
						<path fill="#DADADA" d="M75.1,78.2c0.8,2.7,3.5,24.9-13.1,24.2C45.6,101.6,48.1,80.9,49,78.2C49.4,76.7,53.6,75,62,75
							S74.6,76.4,75.1,78.2z"/>
						<path fill="#F6D3A9" d="M72.5,79.1v-8.1H51.6c0,0,0,3.6,0,8c0,4.5-4.2,8.8-9.3,9.6l-13.6,2.4c-5.2,0.9-9.3,5.9-9.3,11.1
							L17.5,124h89.3l-1.9-21.8c0-5.2-4.2-10.2-9.3-11.1l-13.7-2.3C76.6,87.8,72.5,83.5,72.5,79.1z"/>
						<path opacity="0.1" enable-background="new    " d="M51.6,71.1c0,0,0,3.6,0,8c0,0.4,0,0.6-0.1,1c2.8,2.7,6.4,5.2,10.9,6.8
							c6.3,2.2,12.4,2.4,16.6,1.1c-3.8-1.7-6.5-5.2-6.5-8.8v-8.1H51.6z"/>
						<path fill="#F6F6F6" d="M104.7,102.3c0-5.2-4.2-10.2-9.3-11.1l-13.6-2.4c-2-0.4-3.8-1.2-5.4-2.4c-3,1.9-8.6,5.7-8.6,5.7
							L62,117.8l-5.8-25.7c0,0-5.8-3-9.3-5.2c-1.4,0.9-3,1.7-4.7,1.9l-13.6,2.4c-5.2,0.9-9.3,5.9-9.3,11.1l-1.9,21.8h89.3
							L104.7,102.3z"/>
						<path fill="#FAFAFA" d="M104.7,102.3c0-5.2-4.2-10.2-9.3-11.1l-13.6-2.4c-2-0.4-3.8-1.2-5.4-2.4c-3,1.9-2.3,5.7-2.3,5.7
							L62,117.8L50,92.1c0,0,0.5-3-3-5.2c-1.4,0.9-3,1.7-4.7,1.9l-13.6,2.4c-5.2,0.9-9.3,5.9-9.3,11.1l-1.9,21.8h89.3L104.7,102.3z"
							/>
						<polygon fill="#EDEDED" points="67.9,92.1 75.1,78.2 79.6,87.7 75.2,101.4 						"/>
						<polygon fill="#EDEDED" points="56.3,92.1 49,78.2 44.6,87.7 49,101.4 						"/>
						<path fill="#F6D3A9" d="M84,48.7c0,18-12.2,34.5-21.9,34.5c-9,0-21.9-16.5-21.9-34.5C39.1,35.2,44.8,30,50.7,32.5
							C67.3,45.7,74.8,46.2,84,48.7z"/>
						<path fill="#1D1D1B" d="M53.1,60.2c-0.1,0-0.1,0-0.3,0h-0.1c-3.4-0.6-9.1-1.8-9.8-3.2l-2.2-4c-0.4-0.8-0.5-1.6-0.1-2.2
							c0.4-0.6,1.2-1,2.2-0.9l14.7,1c0.9,0.1,1.7,0.5,2,1.2c0.4,0.6,0.3,1.5-0.1,2.3l-2.2,3.5C56.4,59.2,54.6,60.2,53.1,60.2z
							 M52.9,58.7c1.2,0.1,2.5-0.7,3.1-1.7l2-3.5c0.2-0.4,0.3-0.6,0.1-0.9c-0.1-0.2-0.4-0.4-0.8-0.4l-14.7-1c-0.4,0-0.7,0.1-0.8,0.2
							c-0.1,0.1-0.1,0.4,0.1,0.8l2.2,4C44.7,56.9,49.1,58,52.9,58.7z"/>
						<path fill="#1D1D1B" d="M71.2,60.2L71.2,60.2c-1.6,0-3.5-1-4.2-2.4l-2-3.5c-0.4-0.8-0.5-1.7-0.1-2.3c0.4-0.6,1.1-1.1,2-1.2
							l14.7-1c1-0.1,1.7,0.3,2.2,0.9c0.4,0.6,0.4,1.4-0.1,2.2l-2.2,4c-0.7,1.4-6.5,2.6-9.8,3.2h-0.1C71.3,60.2,71.2,60.2,71.2,60.2z
							 M81.7,51.3c-0.1,0-0.1,0-0.1,0l-14.7,1c-0.4,0-0.7,0.1-0.8,0.4c-0.1,0.2-0.1,0.6,0.1,0.9l2,3.5c0.5,0.9,1.9,1.7,2.9,1.7l0,0
							c0.1,0,0.1,0,0.1,0c3.8-0.7,8.2-1.8,8.8-2.4l2.2-4c0.2-0.4,0.2-0.6,0.1-0.8C82.2,51.3,82,51.3,81.7,51.3z"/>
						<path fill="#1D1D1B" d="M65.6,54.2h-0.6c0-0.8-1.4-1.5-3-1.5c-1.7,0-3,0.7-3,1.5h-0.6c0-1.2,1.6-2.2,3.6-2.2
							C64,52,65.6,53,65.6,54.2z"/>
						<rect x="75.3" y="117.6" fill="#EDEDED" width="15.5" height="3.6"/>
						<g>
							<rect x="84.9" y="114.9" fill="#AF3B14" width="1.7" height="2.7"/>
							<path fill="#E94E1B" d="M84.5,116c0-0.9,0-2.4,0-4c0-2.8,0.5-5.1,1.2-5.1c0.6,0,1.2,2.3,1.2,5.1v4c0,0.6-0.4,1.2-0.8,1.2
								h-0.9C84.9,117.1,84.5,116.6,84.5,116z"/>
							<path fill="#FAC15C" d="M86.1,120.8c0,0.2-0.1,0.4-0.4,0.4l0,0c-0.2,0-0.4-0.1-0.4-0.4V111c0-0.2,0.1-0.4,0.4-0.4l0,0
								c0.2,0,0.4,0.1,0.4,0.4V120.8z"/>
						</g>
					</g>
				</g>
			</g>
		</g>
	</g>
</g>
</svg>
