<?xml version="1.0" encoding="utf-8"?>
<!-- Generator: Adobe Illustrator 18.0.0, SVG Export Plug-In . SVG Version: 6.00 Build 0)  -->
<!DOCTYPE svg PUBLIC "-//W3C//DTD SVG 1.1//EN" "http://www.w3.org/Graphics/SVG/1.1/DTD/svg11.dtd">
<svg version="1.1" id="Isolation_Mode" xmlns="http://www.w3.org/2000/svg" xmlns:xlink="http://www.w3.org/1999/xlink" x="0px"
	 y="0px" viewBox="0 0 117 127.4" enable-background="new 0 0 117 127.4" xml:space="preserve">
<g>
	<g>
		<g>
			<g>
				<g>
					<circle fill="#4AB07A" cx="58.6" cy="71.3" r="44.4"/>
				</g>
			</g>
		</g>
	</g>
	<g>
		<g>
			<defs>
				<path id="SVGID_1_" d="M58.6,0C83.1,0,103,1.5,103,71.3c0,24.5-19.9,44.4-44.4,44.4S14.2,95.8,14.2,71.3C14.2,4.9,34.1,0,58.6,0
					z"/>
			</defs>
			<clipPath id="SVGID_2_">
				<use xlink:href="#SVGID_1_"  overflow="visible"/>
			</clipPath>
			<g clip-path="url(#SVGID_2_)">
				<g>
					<g>
						<defs>
							<rect id="SVGID_3_" x="0" y="4.1" width="117" height="117"/>
						</defs>
						<clipPath id="SVGID_4_">
							<use xlink:href="#SVGID_3_"  overflow="visible"/>
						</clipPath>
						<path opacity="0.1" clip-path="url(#SVGID_4_)" fill="#1D1D1B" enable-background="new    " d="M111.3,106.9
							c0-5-3.9-9.7-8.8-10.5l-12.8-2.2c-0.3-0.1-0.6-0.1-0.8-0.2c-0.1,0-0.1-0.1-0.2-0.1c-0.2-0.1-0.4-0.1-0.6-0.1
							c-0.1,0-0.1-0.1-0.3-0.1c-0.1-0.1-0.4-0.1-0.5-0.2l0.2-0.3l-4.1-9c-0.1-0.6-0.6-1.1-1.5-1.5c3.6-3.9,6.7-9.5,8.3-15.8
							c0.1,0.2,0.4,0.4,0.6,0.4c1.3,0.3,4.1-3.7,4.9-7.1s-0.9-4.9-2.2-5.2c-0.2-0.1-0.4,0-0.6,0.1c0.1-0.9,0.1-1.9,0.1-2.9
							c3.1-18-6.9-17.2-9-28.9C44.5,13.7,46.7,39.8,49,52.1c0,1,0.1,1.9,0.1,2.9c-0.2-0.1-0.4-0.1-0.6-0.1c-1.3,0.3-2.9,1.8-2.2,5.2
							s3.6,7.4,4.9,7.1c0.2-0.1,0.4-0.2,0.6-0.4c1.8,6.3,5,11.9,8.6,15.8c-1.1,0.5-1.6,1-1.8,1.5l-4.1,9l0.2,0.3
							c-0.1,0-0.1,0.1-0.2,0.1c-0.3,0.1-0.5,0.2-0.8,0.3c-0.1,0-0.2,0.1-0.3,0.1c-0.4,0.1-0.7,0.2-1.1,0.3l-12.8,2.2
							c-4.9,0.8-8.8,5.5-8.8,10.5l-1.8,20.5h1.8h36.7h7.1h36.7h1.8L111.3,106.9z"/>
					</g>
					<g>
						<path fill="#F6D3A9" d="M33.9,53.9c0.8,3.4,3.6,7.4,4.9,7.1c1.3-0.3,1.7-3.2,1-6.7c-0.8-3.4-2.4-6-3.6-5.7
							C34.8,49.1,33.2,50.5,33.9,53.9z"/>
						<path fill="#F6D3A9" d="M83.3,53.9c-0.8,3.4-3.6,7.4-4.9,7.1c-1.3-0.3-1.7-3.2-1-6.7c0.8-3.4,2.4-6,3.6-5.7
							C82.3,49.1,84,50.5,83.3,53.9z"/>
						<path fill="#3C3C3B" d="M80.5,46c0,17-12.5,30.8-21.9,30.8C49.8,76.7,36.7,63,36.7,46c-2.4-12.4-4.6-38.4,34.9-28.9
							C73.7,28.7,83.6,28,80.5,46z"/>
						<path fill="#F2F2F2" d="M70.9,77.9c0.8,2.6,3.4,23.5-12.3,22.8C43.1,100,45.4,80.5,46.3,77.9c0.4-1.4,4.4-3.1,12.3-3.1
							S70.4,76.3,70.9,77.9z"/>
						<path fill="#F6D3A9" d="M68.4,78.8v-7.5H48.7c0,0,0,3.4,0,7.6s-3.9,8.3-8.8,9.1l-12.8,2.2c-4.9,0.8-8.8,5.5-8.8,10.5v20.5
							h80.7v-20.5c0-5-3.9-9.7-8.8-10.5L77.2,88C72.4,87.1,68.4,83,68.4,78.8z"/>
						<path fill="#EDEDED" d="M44.4,86.1C43,87,41.6,87.6,40,87.9l-12.8,2.2c-4.9,0.8-8.8,5.5-8.8,10.5l-1.8,20.5h84.2l-1.8-20.5
							c0-5-3.9-9.7-8.8-10.5l-12.8-2.2c-1.9-0.4-3.6-1.1-5-2.2C60.3,93.1,56,93.4,44.4,86.1z"/>
						<rect x="66.8" y="115.9" fill="#FFFFFF" width="16.7" height="3.5"/>
						<path opacity="0.1" enable-background="new    " d="M48.7,71.3c0,0,0,3.4,0,7.6c0,0.4,0,0.6-0.1,1c2.6,2.5,6,4.9,10.3,6.4
							c6,2.1,11.8,2.2,15.6,1c-3.6-1.6-6.2-4.9-6.2-8.3v-7.6H48.7z"/>
						<path fill="#F6D3A9" d="M78.4,57.9L78.4,57.9c-2.5-0.7,0.9-11.4-0.1-15.2c-2.7-7.4-10.4-3.2-19.9-3.2s-17-4.2-19.6,3.2
							c-1.1,3.9,2.3,14.2-0.1,14.9l0,0c2.8,13.8,12.7,25,19.9,25C66.2,82.6,75.6,71.6,78.4,57.9L78.4,57.9z"/>
						<path fill="#4F3D2B" d="M78.4,57.9c0,0-2.2,4.6-4.1,7.2c-1.9,2.6-4.3,5.3-6,4.3c-1.8-0.9-4.7-2.8-6.5-2.8h-3.2h-3.2
							c-1.8,0-4.7,2-6.5,2.8c-1.8,0.9-4.1-1.8-6-4.3s-4.1-7.5-4.1-7.5c2.8,13.8,9.6,25,19.9,25C69.5,82.6,75.6,71.6,78.4,57.9z"/>
						<path fill="#F6D3A9" d="M61.2,74h-5.6c-1.1,0-2-0.6-2.2-1.4s0.5-1.4,1.5-1.4h6.9c1.1,0,1.8,0.6,1.5,1.4
							C63.2,73.4,62.2,74,61.2,74z"/>
						<polygon fill="#3C3C3B" points="56.1,97.6 54.7,93 58.6,90.2 62.4,93 61,97.6 						"/>
						<polygon fill="#FFFFFF" points="58.6,90.2 70.9,77.9 75.1,86.9 65.5,98.9 						"/>
						<polygon fill="#FFFFFF" points="58.6,90.2 46.2,77.9 42.1,86.9 51.7,98.9 						"/>
						<polygon fill="#3C3C3B" points="62.2,121.3 55,121.3 56.1,97.6 61,97.6 						"/>
					</g>
				</g>
			</g>
		</g>
	</g>
</g>
</svg>
