<?xml version="1.0" encoding="utf-8"?>
<!-- Generator: Adobe Illustrator 18.1.0, SVG Export Plug-In . SVG Version: 6.00 Build 0)  -->
<svg version="1.1" id="Layer_1" xmlns="http://www.w3.org/2000/svg" xmlns:xlink="http://www.w3.org/1999/xlink" x="0px" y="0px"
	 viewBox="0 0 792 612" enable-background="new 0 0 792 612" xml:space="preserve">
<g>
	<path fill="#FFFFFF" d="M574.2,281.4c-4-3.2-8.8-2.8-12-7.2c-2.8-4-4.8-8.8-5.6-14c-0.4-4.8,2-8.8,2.4-12.8
		c0.8-11.2,9.2-12.8,16.8-4.8c4.8,4.8,12.8,10.4,18,2c2-3.6,4.8-10,3.2-16.4c-4.4-14.4-14-16.8-19.6-14.8
		c-7.2,2.8-13.6-6.8-15.2-13.2c-1.2-4.8-0.4-9.2-2-14s-4.8-10-9.2-12.8c-4.8-2.8-10.4-2.8-14,1.6c-6,7.6-1.6,20.4,4,27.2
		c3.2,3.6,8.8,7.2,14,5.6c6-2.4,12,6,14.4,10.4c3.2,7.2-1.2,16.8-10.4,14c-7.6-2.4-11.6-15.2-21.6-10.4c-7.6,3.2-8.8,13.2-7.2,20.4
		c1.6,6.8,1.6,22.4-9.2,22c-4.4-0.4-7.2-2.8-12-1.2c-2.8,1.2-4.4,3.6-7.2,4.8c-8.8,4.8-18.4-4.8-20.4-12.4c-2.4-8.8-4-16.4-12-21.6
		c-6.8-4-13.2-3.2-19.2,0.4c-6,3.6-15.2-0.4-19.2-4.8c-2.8-2.8-3.6-4.8-4-8.8c-0.4-6-2.8-11.6-6.8-16.4c-4.8-7.2-13.6-8.8-19.2-14.8
		c-4.8-6-10.4-19.6-2.8-26c4.8-4,4.4-11.2,10.4-13.6c10.4-4.4,17.6,2.8,24.4,10c4.4,4.8,11.2,9.2,17.6,8.8
		c11.6-1.2,9.2-15.6,19.2-16.8c15.2-2,19.6,22.8,35.2,17.2c16.8-6,3.2-32.8-7.6-37.6c-7.6-3.6-13.2-11.6-14-20.4
		c-0.4-4.4,2.8-7.6,3.2-12c0.8-5.6-0.8-11.6-3.6-16c-3.2-6-9.2-11.6-16.4-13.2c-12-2.4-14.8,11.2-12,20c2.4,7.6,8.8,15.2,16,18.4
		c7.6,2.8,13.6,14,13.2,22c-0.4,3.6-2.8,6.8-3.6,10.4c-0.8,4.4-4.4,6.8-8.8,6c-10.4-0.4-13.6-11.2-21.6-16.4
		c-5.6-4-13.2-5.6-19.2-0.8c-3.2,2.8-3.2,6.8-5.6,10c-2.4,3.2-6.8,4.8-10.4,4.4c-11.6-0.4-14.4-10-22-16c-4-2.8-8.8-4-12-7.6
		c-4-3.6-6.8-9.2-8-14.8c-1.6-6.8,0.4-10,4.8-14.4c4-4.4,4.4-11.2,3.2-16.4c-2.4-12.4-15.2-24.4-28.4-24.8c-14.4-0.4-18.8,14-14,26
		c2,4.4,4.8,8.8,8.8,12c3.6,3.2,8.8,4.8,12,8c6.8,5.6,13.6,18.4,9.2,27.2c-1.6,3.2-4.8,4.8-6.8,8.8c-1.6,3.6-2,7.6-1.6,11.6
		c1.6,10.4,9.2,19.6,18.8,23.6c8.8,3.2,14,13.6,14,23.2c0.4,9.2-9.2,14.4-9.2,24.4c0.4,6,2.4,12,6,17.2c4,5.6,10.4,9.2,12,16
		c1.6,5.6,0.8,11.6-1.2,16.4c-2,4.8-6,6.8-10.4,9.2c-4.4,2.8-7.6,8-13.2,9.2c-6,1.2-13.6-0.8-18.4-4.8c-7.2-5.6-8-15.6-15.6-21.6
		c-6.8-4.8-15.2-7.2-23.2-5.6c-9.2,2-13.2,11.2-21.6,13.2c-10,2.4-21.6-1.2-28-8.8c-2.8-3.2-4-8.8-6.8-12c-2.4-4-6-7.2-10.4-10
		c-7.2-4.4-16.8-6.8-26-4.8c-22.4,4-32,31.2-16.4,48c12,13.2,35.2,15.2,48.8,2.4c5.6-4.8,10.8-8.8,18.8-8.4
		c10,0.4,20.4,5.6,23.6,15.2c6,16.8,28,25.6,42.8,13.6c3.2-2.8,5.6-6.8,10-8.8c4-1.6,9.2-2,13.6-1.2c4.4,1.2,8.8,3.2,11.6,7.2
		c3.6,4.8,4,11.6,9.2,16.4c3.6,4,6.8,6,8.8,11.6c1.2,4.4,1.6,9.2,0.4,14c-0.4,1.2-0.4,2.4-0.8,3.2c-2,5.6-8.4,8.8-12,12.8
		c-0.4,0.4-1.2,1.2-1.6,1.6c-12.8,15.2-7.6,45.2,15.2,45.6c4.8,0,9.2-2.8,13.2-1.2c4.4,1.2,7.6,4.4,10.4,8
		c4.8,6.8,5.6,17.2,1.6,25.2c-3.2,6-10.4,10.4-17.6,10.8c-10,0.4-13.2-10-22.4-12c-6.8-2-14.4-0.4-20,4c-8.8,6-10.4,15.2-15.2,24
		c-4,6.8-11.2,12-18.8,14c-4,1.2-8.8,1.2-12.8-0.4c-4.8-2.4-7.6-7.6-13.2-10c-37.2-18-72.4,52.4-31.2,64.4
		C291,533,309,519,315,502.6c4-9.2,8-16.8,18-21.6c4-1.6,8.8-2.8,13.2-2.4c5.6,0.4,7.6,4.4,12,7.6c16.8,13.2,36.4-3.6,40.8-20.4
		c2-8.8,9.2-15.2,17.6-16.8c2.8-0.4,8.8-1.2,10.4,2c2,3.2,4.8,6.8,8.8,8.4c8.8,4,16-2.8,24,1.2c9.2,5.6,11.2,16.4,9.2,26
		c-1.6,8.8-0.4,19.2,6.8,26c4.8,4.8,13.6,6.8,19.2,1.6c12-10.4,17.6-32,5.6-44.8c-2.8-3.2-7.2-5.6-12-4.8c-4.8,0.4-8.8,3.2-14,1.2
		c-9.2-4.8-11.6-15.6-9.2-24.4c3.6-15.2-5.6-39.2-24.4-32.8c-6.8,2.4-12.8-0.8-17.2-6.8c-7.2-10-1.2-18.8-2-30
		c-0.4-4.8-2-10.4-4.8-14.8c-4.4-6-12-10.4-13.2-17.6c-1.2-6.8,0.4-13.2,3.6-18.4c4.8-6,12-7.6,15.2-15.6c4-10.4,0.8-22.4-7.2-30
		c-7.2-6.8-11.2-14.4-8.4-24.4c1.2-3.6,3.2-7.2,7.2-8.8c6-2,7.2-6.8,14-4c4.8,1.6,9.2,4.8,12,9.2c2.4,4,2.4,8.8,4,13.2
		c2.4,7.6,9.2,15.2,17.6,16.4c6.8,0.8,9.2-3.2,14.4-5.6c11.6-3.6,18.8,9.2,20.4,17.6c1.2,5.6,3.6,8.8,0.4,14.4
		c-1.6,3.2-4.8,7.2-9.2,8c-4,1.2-8-1.6-12-0.8c-4.4,0.8-8,3.2-10.4,7.2c-8.4,12-4.8,36.4,12.4,39.2c6.8,1.2,9.2-2.8,14.8-5.6
		c9.2-4.8,19.6,5.6,20.4,14.4c0.4,7.6,4.4,16.8,12,20c7.2,2.8,10.4-1.6,16-4.8c6.8-4.4,14.8,2.4,17.2,8.8c3.2,8.8,2.8,22.4,15.2,24
		c19.2,2.4,16.8-34.8,3.6-40.8c-6.8-2.8-10,1.2-14.4,4.4c-10.4,7.2-16.8-9.2-18.4-16.4c-1.6-8-7.6-18-17.2-17.2
		c-6,0.4-9.2,6.8-15.6,6c-4.4-0.4-8-2.8-10.4-6.8c-3.2-4.4-2.4-8.8-3.6-13.6c-1.2-6.8-2-20.8,6-24.4c2.4-1.2,4.4,1.2,6.8,1.6
		c4.4,1.6,9.2,0.4,12.4-2.8c3.6-3.2,6-8.8,6.8-13.2c0.4-5.6-2-11.2-1.6-16.8c0.4-6,4.8-16.4,13.2-12.8c2.8,1.2,5.6,1.2,8,2.8
		c4.4,3.6,7.2,10,7.6,15.6c0.4,4.8-2.4,9.2-2.8,14c-0.4,4.8,0.8,10.4,3.2,15.2c3.2,6,10.4,12,17.6,7.6c7.2-4.8,7.2-16,4.8-23.6
		C579.4,288.6,577.4,284.6,574.2,281.4z"/>
</g>
</svg>
