<?xml version="1.0" encoding="utf-8"?>
<!-- Generator: Adobe Illustrator 18.0.0, SVG Export Plug-In . SVG Version: 6.00 Build 0)  -->
<!DOCTYPE svg PUBLIC "-//W3C//DTD SVG 1.1//EN" "http://www.w3.org/Graphics/SVG/1.1/DTD/svg11.dtd">
<svg version="1.1" id="Isolation_Mode" xmlns="http://www.w3.org/2000/svg" xmlns:xlink="http://www.w3.org/1999/xlink" x="0px"
	 y="0px" viewBox="0 46.7 792 565.3" enable-background="new 0 46.7 792 565.3" xml:space="preserve">
<g>
	<circle fill="#FDF6EB" cx="395.8" cy="328.7" r="282"/>
	<g>
		<g>
			<path fill="#769B94" d="M660.2,232.3c0.3,0.2,0.5,0.3,0.8,0.5c-4.6-12.7-10.1-24.9-16.3-36.7l-11.8,20.5L660.2,232.3z"/>
			<path fill="#769B94" d="M665.8,247.3c-0.3,0.7-0.6,1.4-1,2.1L538,470.4l134.3-196.9C670.6,264.6,668.4,255.9,665.8,247.3z"/>
			<path fill="#769B94" d="M521.3,76.2c-3.9-1.9-7.8-3.7-11.8-5.5l-77,143.9l-48.1-7.2l53.1,14.9L521.3,76.2z"/>
		</g>
		<g>
			<polygon fill="#F2E4DA" points="322.4,427.4 245.6,439.9 315.3,406.2 270.9,273.4 281.8,269.7 335.1,429.1 324.2,432.8 			"/>
			<path fill="#515151" d="M128.4,418.4c9.6,28.8,23.5,55,40.6,78.2l158.7-53.1l-5.4-16.1l-76.8,12.5l69.7-33.7l-48.7-145.8
				l-152.2,50.9C112.1,346.6,116.5,382.8,128.4,418.4z"/>
			<g>
				<path fill="#545454" d="M322.4,427.4l-24.2,4l-141.4,47.3c1.2,1.9,2.4,3.8,3.7,5.7l162.7-54.4L322.4,427.4z"/>
				<path fill="#545454" d="M311,393.5l-169.8,56.8c1,2,1.9,4,2.9,6l168.9-56.5L311,393.5z"/>
				<path fill="#545454" d="M301,363.4l-171.7,57.4c0.7,2.1,1.5,4.2,2.2,6.2l171.6-57.4L301,363.4z"/>
				<path fill="#545454" d="M290.9,333.3l-170.3,56.9c0.5,2.2,1,4.3,1.5,6.5L293,339.5L290.9,333.3z"/>
				<path fill="#545454" d="M280.8,303.1l-165.5,55.3c0.2,2.2,0.5,4.5,0.8,6.7l166.8-55.8L280.8,303.1z"/>
				<path fill="#545454" d="M270.7,273l-156.9,52.5c0,2.3,0,4.7,0,7l159-53.2L270.7,273z"/>
			</g>
			<g>
				<g>
					<path fill="#F2E4DA" d="M245.7,414.4c2.3,6.7,9.6,10.4,16.3,8.1c6.7-2.3,10.4-9.5,8.1-16.3c-2.3-6.7-9.5-10.4-16.3-8.1
						C247.1,400.4,243.5,407.7,245.7,414.4z"/>
				</g>
				<g>
					<path fill="#F2E4DA" d="M200,429.7c2.3,6.7,9.6,10.4,16.3,8.1c6.7-2.2,10.4-9.5,8.1-16.3c-2.3-6.7-9.5-10.4-16.3-8.1
						C201.4,415.7,197.7,423,200,429.7z"/>
				</g>
			</g>
		</g>
		<path fill="#ECC19C" d="M314.3,271.9l18.2-47.2l52-17.4l58.8,16.5l76.1-25.4c10.9-3.7,22.8,2.2,26.4,13.2
			c3.7,10.9-2.2,22.8-13.2,26.4l0,0l-7.1,2.4c10.9-3.7,22.8,2.2,26.4,13.2c3.7,10.9-2.2,22.8-13.2,26.4l0,0
			c10.9-3.7,22.8,2.2,26.4,13.2c3.7,10.9-2.2,22.8-13.2,26.4l0,0c10.9-3.7,22.8,2.2,26.4,13.2c3.7,10.9-2.2,22.8-13.2,26.4l0,0
			l-13.3,4.4l-60.1,20.1l-82,27.4l-36.7-5.9l-41.3,13.8l-46.1-137.8L314.3,271.9z"/>
		<path fill="#DDAE8C" d="M373.7,331.4l24.4-68.7l51.5,11.5l0,0c4.3,1.1,8.9,1.1,13.5-0.4c12.3-4.1,18.9-17.4,14.8-29.6
			c-0.9-2.5-2.1-4.8-3.7-6.9c2.8,2.6,5.1,5.9,6.4,9.8c4.1,12.3-2.5,25.5-14.8,29.6c-4.5,1.5-8.9,2.6-13.7,2.5l-48.1-7.1l-27.6,62.2
			l-2.9-2.9L373.7,331.4z"/>
		<g>
			<g>
				<path fill="#FDF6EB" d="M665.4,134.9c6,3.4,8.1,11.1,4.6,17.1L543.3,373c-3.4,6-11.1,8.1-17.1,4.6l-122.9-70.5
					c-6-3.4-8.1-11.1-4.6-17.1L525.5,69c3.4-6,11.1-8.1,17.1-4.6L665.4,134.9z"/>
				<path fill="#939090" d="M518,153.5l-89.3,168.1l97.5,55.9c6,3.4,13.7,1.3,17.1-4.6l92.1-160.5c-37.8-25.6-100.3-63.6-100.3-63.6
					C529.1,145.5,521.4,147.6,518,153.5z"/>
				<circle fill="#7F7C7C" cx="600.8" cy="183.3" r="26.5"/>
				<circle fill="#358A8E" cx="617.5" cy="154.1" r="26.5"/>
				<path fill="#706D6D" d="M575.9,174.2c-4.4,11.9,0.3,25.6,11.7,32.1c10.6,6.1,23.7,4,32-4.3C605.4,192.7,589.8,182.9,575.9,174.2
					z"/>
				<path fill="#565351" d="M587.2,90l-29.5-16.9L418.4,315.8l10.2,5.9L518,153.5c3.4-6,11.1-8.1,17.1-4.6c0,0,5.2,3.2,13.6,8.3
					L587.2,90z"/>
				<path fill="#4C4947" d="M520.2,166.5c3.4-6,11.1-8.1,17.1-4.6l6.5,3.7l4.8-8.4c-8.3-5.1-13.6-8.3-13.6-8.3
					c-6-3.4-13.7-1.3-17.1,4.6l-89.3,168.1l1.9,1.1L520.2,166.5z"/>
			</g>
			<g>
				<path fill="#22262E" d="M660.2,232.3c6,3.4,8.1,11.1,4.6,17.1L538,470.4c-3.4,6-11.1,8.1-17.1,4.6L398,404.6
					c-6-3.4-8.1-11.1-4.6-17.1l126.8-221c3.4-6,11.1-8.1,17.1-4.6L660.2,232.3z"/>
				<g>
					<polygon fill="#C6C6C6" points="644.4,251.6 629.6,243.1 600.1,294.6 595.5,291.9 614.9,303.1 610.2,300.4 639.7,248.9 					
						"/>
					<path fill="#726D6D" d="M644.4,251.6l-4.7-2.7l-29.5,51.4l4.7,2.7c1.7,1,3.9,0.6,4.7-0.9l26.4-46
						C646.9,254.7,646.2,252.6,644.4,251.6z"/>
					<path fill="#AD2F2F" d="M620.3,241.4l-26.4,46c-0.9,1.5-0.1,3.5,1.6,4.5l4.6,2.6l29.5-51.4l-4.6-2.6
						C623.3,239.5,621.1,239.9,620.3,241.4z"/>
				</g>
				<g>
					
						<rect x="479.9" y="403.9" transform="matrix(0.4977 -0.8674 0.8674 0.4977 -104.1257 644.1219)" fill="#5BAAAA" width="48.2" height="16.1"/>
					
						<rect x="508.7" y="353.8" transform="matrix(0.4977 -0.8674 0.8674 0.4977 -46.1887 643.8887)" fill="#5BAAAA" width="48.2" height="16.1"/>
					
						<rect x="537.5" y="303.7" transform="matrix(0.4977 -0.8674 0.8674 0.4977 11.748 643.6548)" fill="#5BAAAA" width="48.2" height="16.1"/>
					
						<rect x="566.2" y="253.5" transform="matrix(0.4977 -0.8674 0.8674 0.4977 69.6836 643.4193)" fill="#5BAAAA" width="48.2" height="16.1"/>
				</g>
				<g>
					<path fill="#E0E069" d="M481.1,371c6,3.4,8.1,11.1,4.6,17.1l-11.5,20.1c-3.4,6-11.1,8.1-17.1,4.6l-11.7-6.7
						c-6-3.4-8.1-11.1-4.6-17.1l11.5-20.1c3.4-6,11.1-8.1,17.1-4.6L481.1,371z"/>
					<path fill="#C9C12F" d="M479.4,370.1l-6,10.4l-8.3-4.8l6-10.4l-1.6-0.9c0,0,0,0,0,0l-7,12.1l13,7.4l-9.8,17.1l-11.7-6.7
						c-1.7-1.1-3.3-3-4.5-5.2l5.8-10.1l-1.7-1l-5.2,9.1c-1.3-2.5-2.2-4.9-2.7-6.3l-1.3,2.2c1.3,3.4,3.9,9.1,7.4,12.1l-6.3,11
						c0,0,0,0,0,0l1.6,0.9l6.2-10.8l8.3,4.8l-6.2,10.8l1.7,1l6.2-10.8l2.9,1.7l10.8-18.8l1.6,0.9c0,0,3.5,2.2,5.2,5.8l1.1-2
						c-2-3.4-5.1-5.3-5.3-5.5l-4.6-2.6l6-10.4L479.4,370.1z"/>
				</g>
			</g>
		</g>
		<g>
			<g>
				<path fill="#8C8B8B" d="M464.7,230.1c0.8,0.3,1.5,0.7,2.3,1.1l0-0.1C466.3,230.7,465.5,230.4,464.7,230.1z"/>
				<polygon fill="#8C8B8B" points="413.5,266.1 412.5,265.9 408.6,272.8 440.2,277.9 443.1,272.8 				"/>
			</g>
			<path fill="#318484" d="M459,280.9L459,280.9c4.3,0.9,9,0.5,13.4-1.2c12-4.8,17.8-18.5,12.9-30.5c-1.4-3.4-3.9-6.8-7-9.9
				l-1.5,2.6c0.3,0.7,0.6,1.5,0.9,2.2c4.1,12.3-2.5,25.5-14.8,29.6c-1.7,0.6-3.3,0.9-5,1.1l-3.1,5.4L459,280.9z"/>
			<g>
				<path fill="#3F3D3B" d="M478.4,239.4c-1.3-1.3-2.7-2.5-4.1-3.6l-0.6,1.1c1.3,1.5,2.3,3.2,3.2,5.1L478.4,239.4z"/>
				<path fill="#3F3D3B" d="M458,274.9c-1.5,0.2-3,0.2-4.5,0l-2.5,4.8l3.9,0.6L458,274.9z"/>
			</g>
			<g>
				<path fill="#4C4A48" d="M467,231.1L467,231.1c2.5,1.5,4.8,3.4,6.7,5.7l0.6-1.1C472,233.9,469.5,232.3,467,231.1z"/>
				<path fill="#4C4A48" d="M449.6,274.2L449.6,274.2l-6.4-1.4l-2.9,5.1l10.8,1.8l2.5-4.8C452.2,274.8,450.8,274.5,449.6,274.2z"/>
			</g>
		</g>
		<path fill="#ECC19C" d="M314.3,271.9l18.2-47.2l52-17.4l75.8,21.3c7.9,1.6,14.8,7.3,17.6,15.5c4.1,12.3-2.5,25.5-14.8,29.6
			c-4.5,1.5-9.2,1.6-13.5,0.4l0,0l-51.5-11.5l-24.4,68.7l-64.1,21.4l-23.9-71.4L314.3,271.9z"/>
		<path fill="#F2D6C2" d="M456.4,236.2c8,1.9,13,9.9,11.1,17.8c-1.9,8-9.9,13-17.8,11.1l-14.8-3.4l6.7-29L456.4,236.2z"/>
	</g>
</g>
</svg>
