<?xml version="1.0" encoding="utf-8"?>
<!-- Generator: Adobe Illustrator 18.0.0, SVG Export Plug-In . SVG Version: 6.00 Build 0)  -->
<!DOCTYPE svg PUBLIC "-//W3C//DTD SVG 1.1//EN" "http://www.w3.org/Graphics/SVG/1.1/DTD/svg11.dtd">
<svg version="1.1" id="Layer_1" xmlns="http://www.w3.org/2000/svg" xmlns:xlink="http://www.w3.org/1999/xlink" x="0px" y="0px"
	 viewBox="90 -1 612 612" enable-background="new 90 -1 612 612" xml:space="preserve">
<g>
	<g>
		
			<rect x="194.9" y="288.6" transform="matrix(-0.9121 -0.4099 0.4099 -0.9121 229.3851 753.5569)" fill="#49CF98" width="1.1" height="127.2"/>
	</g>
	<g>
		<polygon fill="#49CF98" points="222.1,292.8 221.3,292 307.3,208.3 308.1,209.1 		"/>
	</g>
	<g>
		<polygon fill="#49CF98" points="225.4,294.8 224.8,293.9 409.3,181 410,181.9 		"/>
	</g>
	<g>
		<polygon fill="#49CF98" points="259.5,373 224.7,300.5 225.6,300 260.4,372.6 		"/>
	</g>
	<g>
		<polygon fill="#49CF98" points="421,433.3 221.3,294.8 221.9,293.9 421.6,432.4 		"/>
	</g>
	<g>
		
			<rect x="217.8" y="203.3" transform="matrix(-0.9941 -0.1089 0.1089 -0.9941 498.6698 434.964)" fill="#49CF98" width="86.8" height="1.1"/>
	</g>
	<g>
		<polygon fill="#49CF98" points="385.1,304.8 209.8,205.8 210.4,204.9 385.7,303.7 		"/>
	</g>
	<g>
		
			<rect x="302.1" y="80.4" transform="matrix(-5.564608e-02 -0.9985 0.9985 -5.564608e-02 132.119 500.2424)" fill="#49CF98" width="1.1" height="214.4"/>
	</g>
	<g>
		<polygon fill="#49CF98" points="421,433.2 192.5,195.4 193.2,194.6 421.8,432.4 		"/>
	</g>
	<g>
		
			<rect x="180.7" y="192.9" transform="matrix(-0.9915 -0.13 0.13 -0.9915 321.7087 624.8989)" fill="#49CF98" width="1.1" height="218.1"/>
	</g>
	<g>
		
			<rect x="164" y="247.7" transform="matrix(-0.2575 -0.9663 0.9663 -0.2575 24.0107 514.8511)" fill="#49CF98" width="91.6" height="1.1"/>
	</g>
	<g>
		<polygon fill="#49CF98" points="260.3,373.3 259.6,372.3 359.6,318.1 360.1,319.2 		"/>
	</g>
	<g>
		
			<rect x="282.5" y="205.1" transform="matrix(-0.9554 -0.2953 0.2953 -0.9554 468.0615 648.9941)" fill="#49CF98" width="1.1" height="168.1"/>
	</g>
	<g>
		
			<rect x="214" y="342.5" transform="matrix(-0.3829 -0.9238 0.9238 -0.3829 -64.9482 739.6477)" fill="#49CF98" width="1.1" height="98"/>
	</g>
	<g>
		
			<rect x="254.7" y="402.2" transform="matrix(-0.9374 -0.3482 0.3482 -0.9374 520.0037 898.9506)" fill="#49CF98" width="172.2" height="1.1"/>
	</g>
	<g>
		
			<rect x="171.9" y="422.7" transform="matrix(-0.9971 -7.641955e-02 7.641955e-02 -0.9971 560.5062 867.9734)" fill="#49CF98" width="249.9" height="1.1"/>
	</g>
	<g>
		
			<rect x="479.8" y="363.5" transform="matrix(-0.1576 -0.9875 0.9875 -0.1576 138.1575 964.1582)" fill="#49CF98" width="1.1" height="119.3"/>
	</g>
	<g>
		
			<rect x="472.4" y="365.7" transform="matrix(-0.3269 -0.9451 0.9451 -0.3269 347.4257 979.932)" fill="#49CF98" width="100.6" height="1.1"/>
	</g>
	<g>
		
			<rect x="463.2" y="304.5" transform="matrix(-0.8032 -0.5957 0.5957 -0.8032 612.4832 953.5593)" fill="#49CF98" width="1.1" height="142.2"/>
	</g>
	<g>
		<g>
			<g>
				<polygon fill="#49CF98" points="420.8,432.8 388.2,306 389.3,305.7 421.9,432.7 				"/>
			</g>
		</g>
	</g>
	<g>
		
			<rect x="388.5" y="311.7" transform="matrix(-0.9941 -0.1085 0.1085 -0.9941 858.5699 671.2259)" fill="#49CF98" width="118.1" height="1.1"/>
	</g>
	<g>
		<polygon fill="#49CF98" points="506.4,319.2 506.1,318.1 623.5,293.7 623.6,294.8 		"/>
	</g>
	<g>
		<polygon fill="#49CF98" points="541.1,414 540.2,413.4 623.2,294 624.1,294.6 		"/>
	</g>
	<g>
		
			<rect x="521.2" y="241.5" transform="matrix(-0.5653 -0.8249 0.8249 -0.5653 516.8696 999.3819)" fill="#49CF98" width="1.1" height="243.9"/>
	</g>
	<g>
		
			<rect x="358.8" y="143.1" transform="matrix(-0.2601 -0.9656 0.9656 -0.2601 264.4522 592.8339)" fill="#49CF98" width="1.1" height="104"/>
	</g>
	<g>
		
			<rect x="286.5" y="255.9" transform="matrix(-0.6329 -0.7742 0.7742 -0.6329 369.9138 688.2686)" fill="#49CF98" width="123.3" height="1.1"/>
	</g>
	<g>
		
			<rect x="397.9" y="180.5" transform="matrix(-0.9841 -0.1776 0.1776 -0.9841 747.4442 552.62)" fill="#49CF98" width="1.1" height="124.7"/>
	</g>
	<g>
		
			<rect x="409.3" y="186.6" transform="matrix(-0.9954 -9.607936e-02 9.607936e-02 -0.9954 919.3732 418.5827)" fill="#49CF98" width="120.9" height="1.1"/>
	</g>
	<g>
		
			<rect x="517.5" y="191.9" transform="matrix(-0.9825 -0.1864 0.1864 -0.9825 979.5844 601.2322)" fill="#49CF98" width="1.1" height="125.3"/>
	</g>
	<g>
		
			<rect x="508.3" y="242.6" transform="matrix(-0.6829 -0.7305 0.7305 -0.6829 791.4521 829.7744)" fill="#49CF98" width="135" height="1.1"/>
	</g>
	<g>
		
			<rect x="460.2" y="159.9" transform="matrix(-0.6083 -0.7937 0.7937 -0.6083 544.9836 763.0266)" fill="#49CF98" width="1.1" height="174.2"/>
	</g>
	<g>
		
			<rect x="374" y="249.6" transform="matrix(-0.576 -0.8175 0.8175 -0.576 517.1936 768.5221)" fill="#49CF98" width="167.8" height="1.1"/>
	</g>
	<g>
		<polygon fill="#49CF98" points="540.2,410.1 529.3,193.9 530.4,193.9 541.3,410.1 		"/>
	</g>
	<g>
		<polygon fill="#49CF98" points="421.9,433 420.8,432.5 529.4,193.7 530.4,194 		"/>
	</g>
	<g>
		
			<rect x="395.7" y="237.3" transform="matrix(-0.8846 -0.4664 0.4664 -0.8846 862.7777 689.2305)" fill="#49CF98" width="241.9" height="1.1"/>
	</g>
	<g>
		<polygon fill="#49CF98" points="539.1,414.3 259.8,373.3 259.9,372.3 539.3,413.1 		"/>
	</g>
	<circle fill="#49CF98" cx="421.3" cy="432.8" r="15.5"/>
	<path fill="#FDA400" d="M518.6,318.7c0,6.7-5.5,12.3-12.3,12.3c-6.7,0-12.3-5.5-12.3-12.3s5.5-12.3,12.3-12.3
		C513,306.3,518.6,311.8,518.6,318.7z"/>
	<path fill="#49CF98" d="M545.5,193.1c0,8.6-7.1,15.6-15.6,15.6s-15.6-7.1-15.6-15.6c0-8.6,7.1-15.6,15.6-15.6
		C538.5,177.5,545.5,184.4,545.5,193.1z"/>
	<circle fill="#FDA400" cx="259.9" cy="372.7" r="12.6"/>
	<circle fill="#FDA400" cx="221.6" cy="294.3" r="11.5"/>
	<circle fill="#FDA400" cx="309.2" cy="208.8" r="9.5"/>
	<path fill="#FFFFFF" d="M433.1,304.2c0,25.3-20.6,45.9-45.9,45.9s-45.9-20.6-45.9-45.9s20.6-45.9,45.9-45.9
		C412.6,258.3,433.1,278.9,433.1,304.2z"/>
	<ellipse fill="#FFFFFF" cx="622.1" cy="294.3" rx="24.4" ry="24.4"/>
	<circle fill="#FFFFFF" cx="169.3" cy="410.1" r="23.6"/>
	<path fill="#FFFFFF" d="M427.4,181.5c0,9.8-8,17.8-17.8,17.8s-17.8-8-17.8-17.8s8-17.8,17.8-17.8
		C419.5,163.7,427.4,171.6,427.4,181.5z"/>
	<path fill="#FFFFFF" d="M218.7,193.9c0,12.7-10.4,23.2-23.2,23.2s-23.2-10.4-23.2-23.2c0-12.7,10.4-23.2,23.2-23.2
		S218.7,181,218.7,193.9z"/>
	<path fill="#FFFFFF" d="M553.4,413.7c0,6.9-5.7,12.6-12.6,12.6c-6.9,0-12.6-5.7-12.6-12.6s5.7-12.6,12.6-12.6
		S553.4,406.8,553.4,413.7z"/>
</g>
</svg>
